<mxfile host="Electron" agent="Mozilla/5.0 (Windows NT 10.0; Win64; x64) AppleWebKit/537.36 (KHTML, like Gecko) draw.io/26.2.2 Chrome/134.0.6998.178 Electron/35.1.2 Safari/537.36" border="50" scale="3" compressed="false" locked="false" version="26.2.2" pages="7">
  <diagram name="1.系统界面流程图" id="YmL12bMKpDGza6XwsDPr">
    <mxGraphModel dx="2076" dy="926" grid="1" gridSize="10" guides="1" tooltips="1" connect="1" arrows="1" fold="1" page="0" pageScale="1" pageWidth="827" pageHeight="1169" background="none" math="1" shadow="0">
      <root>
        <mxCell id="X5NqExCQtvZxIxQ7pmgY-0" />
        <mxCell id="1" parent="X5NqExCQtvZxIxQ7pmgY-0" />
        <mxCell id="1ZKRfEpZuRm8bAp9dW-u-2" style="edgeStyle=orthogonalEdgeStyle;rounded=0;orthogonalLoop=1;jettySize=auto;html=1;" edge="1" parent="1" source="z-vICnq4sZwjzbMmBZmx-7" target="1ZKRfEpZuRm8bAp9dW-u-1">
          <mxGeometry relative="1" as="geometry" />
        </mxCell>
        <mxCell id="z-vICnq4sZwjzbMmBZmx-7" value="系统进入" style="ellipse;whiteSpace=wrap;html=1;" vertex="1" parent="1">
          <mxGeometry x="-90" y="20" width="120" height="80" as="geometry" />
        </mxCell>
        <mxCell id="z-vICnq4sZwjzbMmBZmx-81" value="1.用户系统进入" style="rounded=0;whiteSpace=wrap;html=1;" vertex="1" parent="1">
          <mxGeometry x="100" y="165" width="120" height="60" as="geometry" />
        </mxCell>
        <mxCell id="1ZKRfEpZuRm8bAp9dW-u-24" style="edgeStyle=orthogonalEdgeStyle;rounded=0;orthogonalLoop=1;jettySize=auto;html=1;entryX=0;entryY=0.5;entryDx=0;entryDy=0;" edge="1" parent="1" source="z-vICnq4sZwjzbMmBZmx-82" target="1ZKRfEpZuRm8bAp9dW-u-21">
          <mxGeometry relative="1" as="geometry" />
        </mxCell>
        <mxCell id="1ZKRfEpZuRm8bAp9dW-u-25" style="edgeStyle=orthogonalEdgeStyle;rounded=0;orthogonalLoop=1;jettySize=auto;html=1;entryX=0;entryY=0.5;entryDx=0;entryDy=0;" edge="1" parent="1" source="z-vICnq4sZwjzbMmBZmx-82" target="1ZKRfEpZuRm8bAp9dW-u-22">
          <mxGeometry relative="1" as="geometry" />
        </mxCell>
        <mxCell id="1ZKRfEpZuRm8bAp9dW-u-26" style="edgeStyle=orthogonalEdgeStyle;rounded=0;orthogonalLoop=1;jettySize=auto;html=1;entryX=0;entryY=0.5;entryDx=0;entryDy=0;" edge="1" parent="1" source="z-vICnq4sZwjzbMmBZmx-82" target="1ZKRfEpZuRm8bAp9dW-u-23">
          <mxGeometry relative="1" as="geometry" />
        </mxCell>
        <mxCell id="1ZKRfEpZuRm8bAp9dW-u-27" style="edgeStyle=orthogonalEdgeStyle;rounded=0;orthogonalLoop=1;jettySize=auto;html=1;entryX=0;entryY=0.5;entryDx=0;entryDy=0;" edge="1" parent="1" source="z-vICnq4sZwjzbMmBZmx-82" target="z-vICnq4sZwjzbMmBZmx-7">
          <mxGeometry relative="1" as="geometry">
            <Array as="points">
              <mxPoint x="150" y="550" />
              <mxPoint x="-280" y="550" />
              <mxPoint x="-280" y="60" />
            </Array>
          </mxGeometry>
        </mxCell>
        <mxCell id="z-vICnq4sZwjzbMmBZmx-82" value="2.管理员系统进入" style="rounded=0;whiteSpace=wrap;html=1;" vertex="1" parent="1">
          <mxGeometry x="90" y="320" width="120" height="60" as="geometry" />
        </mxCell>
        <mxCell id="z-vICnq4sZwjzbMmBZmx-85" value="0.退出系统" style="rounded=0;whiteSpace=wrap;html=1;" vertex="1" parent="1">
          <mxGeometry x="-90" y="400" width="120" height="60" as="geometry" />
        </mxCell>
        <mxCell id="1ZKRfEpZuRm8bAp9dW-u-4" style="edgeStyle=orthogonalEdgeStyle;rounded=0;orthogonalLoop=1;jettySize=auto;html=1;" edge="1" parent="1" source="1ZKRfEpZuRm8bAp9dW-u-1" target="1ZKRfEpZuRm8bAp9dW-u-3">
          <mxGeometry relative="1" as="geometry" />
        </mxCell>
        <mxCell id="1ZKRfEpZuRm8bAp9dW-u-5" style="edgeStyle=orthogonalEdgeStyle;rounded=0;orthogonalLoop=1;jettySize=auto;html=1;" edge="1" parent="1" source="1ZKRfEpZuRm8bAp9dW-u-1" target="z-vICnq4sZwjzbMmBZmx-85">
          <mxGeometry relative="1" as="geometry" />
        </mxCell>
        <mxCell id="1ZKRfEpZuRm8bAp9dW-u-6" style="edgeStyle=orthogonalEdgeStyle;rounded=0;orthogonalLoop=1;jettySize=auto;html=1;" edge="1" parent="1" source="1ZKRfEpZuRm8bAp9dW-u-1" target="z-vICnq4sZwjzbMmBZmx-81">
          <mxGeometry relative="1" as="geometry" />
        </mxCell>
        <mxCell id="1ZKRfEpZuRm8bAp9dW-u-7" style="edgeStyle=orthogonalEdgeStyle;rounded=0;orthogonalLoop=1;jettySize=auto;html=1;exitX=0.75;exitY=0.767;exitDx=0;exitDy=0;exitPerimeter=0;" edge="1" parent="1" source="1ZKRfEpZuRm8bAp9dW-u-1" target="z-vICnq4sZwjzbMmBZmx-82">
          <mxGeometry relative="1" as="geometry">
            <Array as="points">
              <mxPoint x="10" y="219" />
              <mxPoint x="10" y="350" />
            </Array>
          </mxGeometry>
        </mxCell>
        <mxCell id="1ZKRfEpZuRm8bAp9dW-u-1" value="检验输入有效性" style="html=1;whiteSpace=wrap;aspect=fixed;shape=isoRectangle;" vertex="1" parent="1">
          <mxGeometry x="-105" y="150" width="150" height="90" as="geometry" />
        </mxCell>
        <mxCell id="1ZKRfEpZuRm8bAp9dW-u-3" value="请重新输入" style="rounded=0;whiteSpace=wrap;html=1;" vertex="1" parent="1">
          <mxGeometry x="-260" y="260" width="120" height="60" as="geometry" />
        </mxCell>
        <mxCell id="1ZKRfEpZuRm8bAp9dW-u-8" value="error" style="text;html=1;align=center;verticalAlign=middle;whiteSpace=wrap;rounded=0;" vertex="1" parent="1">
          <mxGeometry x="-260" y="220" width="60" height="30" as="geometry" />
        </mxCell>
        <mxCell id="1ZKRfEpZuRm8bAp9dW-u-9" style="edgeStyle=orthogonalEdgeStyle;rounded=0;orthogonalLoop=1;jettySize=auto;html=1;" edge="1" parent="1" source="1ZKRfEpZuRm8bAp9dW-u-3">
          <mxGeometry relative="1" as="geometry">
            <mxPoint x="-30" y="120" as="targetPoint" />
            <Array as="points">
              <mxPoint x="-200" y="120" />
            </Array>
          </mxGeometry>
        </mxCell>
        <mxCell id="1ZKRfEpZuRm8bAp9dW-u-16" style="edgeStyle=orthogonalEdgeStyle;rounded=0;orthogonalLoop=1;jettySize=auto;html=1;entryX=0;entryY=0.5;entryDx=0;entryDy=0;" edge="1" parent="1" source="1ZKRfEpZuRm8bAp9dW-u-10" target="1ZKRfEpZuRm8bAp9dW-u-15">
          <mxGeometry relative="1" as="geometry" />
        </mxCell>
        <mxCell id="1ZKRfEpZuRm8bAp9dW-u-18" style="edgeStyle=orthogonalEdgeStyle;rounded=0;orthogonalLoop=1;jettySize=auto;html=1;" edge="1" parent="1" source="1ZKRfEpZuRm8bAp9dW-u-10" target="1ZKRfEpZuRm8bAp9dW-u-17">
          <mxGeometry relative="1" as="geometry" />
        </mxCell>
        <mxCell id="1ZKRfEpZuRm8bAp9dW-u-10" value="载入成功？" style="html=1;whiteSpace=wrap;aspect=fixed;shape=isoRectangle;" vertex="1" parent="1">
          <mxGeometry x="390" y="150" width="150" height="90" as="geometry" />
        </mxCell>
        <mxCell id="1ZKRfEpZuRm8bAp9dW-u-13" style="edgeStyle=orthogonalEdgeStyle;rounded=0;orthogonalLoop=1;jettySize=auto;html=1;entryX=0.079;entryY=0.537;entryDx=0;entryDy=0;entryPerimeter=0;" edge="1" parent="1" source="z-vICnq4sZwjzbMmBZmx-81" target="1ZKRfEpZuRm8bAp9dW-u-10">
          <mxGeometry relative="1" as="geometry" />
        </mxCell>
        <mxCell id="1ZKRfEpZuRm8bAp9dW-u-14" value="CUSTOMER_FILE" style="shape=document;whiteSpace=wrap;html=1;boundedLbl=1;" vertex="1" parent="1">
          <mxGeometry x="240" y="100" width="120" height="80" as="geometry" />
        </mxCell>
        <mxCell id="1ZKRfEpZuRm8bAp9dW-u-15" value="进入用户操作界面&lt;div&gt;userOperating&lt;/div&gt;&lt;div&gt;(user.c&lt;span style=&quot;background-color: transparent; color: light-dark(rgb(0, 0, 0), rgb(255, 255, 255));&quot;&gt;)&lt;/span&gt;&lt;/div&gt;" style="rounded=0;whiteSpace=wrap;html=1;" vertex="1" parent="1">
          <mxGeometry x="640" y="165" width="120" height="60" as="geometry" />
        </mxCell>
        <mxCell id="1ZKRfEpZuRm8bAp9dW-u-17" value="载入失败&lt;div&gt;return 1&lt;/div&gt;" style="rounded=0;whiteSpace=wrap;html=1;" vertex="1" parent="1">
          <mxGeometry x="405" y="30" width="120" height="60" as="geometry" />
        </mxCell>
        <mxCell id="1ZKRfEpZuRm8bAp9dW-u-19" value="No" style="text;html=1;align=center;verticalAlign=middle;whiteSpace=wrap;rounded=0;" vertex="1" parent="1">
          <mxGeometry x="480" y="120" width="60" height="30" as="geometry" />
        </mxCell>
        <mxCell id="1ZKRfEpZuRm8bAp9dW-u-20" value="Yes" style="text;html=1;align=center;verticalAlign=middle;whiteSpace=wrap;rounded=0;" vertex="1" parent="1">
          <mxGeometry x="560" y="165" width="60" height="30" as="geometry" />
        </mxCell>
        <mxCell id="1ZKRfEpZuRm8bAp9dW-u-21" value="1用户管理&lt;div&gt;进入customer.c&lt;/div&gt;" style="rounded=0;whiteSpace=wrap;html=1;" vertex="1" parent="1">
          <mxGeometry x="290" y="320" width="120" height="60" as="geometry" />
        </mxCell>
        <mxCell id="1ZKRfEpZuRm8bAp9dW-u-22" value="2收取包裹管理&lt;div&gt;进入receivedPackage.c&lt;/div&gt;" style="rounded=0;whiteSpace=wrap;html=1;" vertex="1" parent="1">
          <mxGeometry x="290" y="450" width="120" height="60" as="geometry" />
        </mxCell>
        <mxCell id="1ZKRfEpZuRm8bAp9dW-u-23" value="3取件包裹管理&lt;div&gt;进入&lt;/div&gt;&lt;div&gt;sendPackage.c&lt;/div&gt;" style="rounded=0;whiteSpace=wrap;html=1;" vertex="1" parent="1">
          <mxGeometry x="290" y="580" width="120" height="60" as="geometry" />
        </mxCell>
        <mxCell id="1ZKRfEpZuRm8bAp9dW-u-28" value="0_返回上一级" style="text;html=1;align=center;verticalAlign=middle;whiteSpace=wrap;rounded=0;" vertex="1" parent="1">
          <mxGeometry x="-15" y="560" width="105" height="30" as="geometry" />
        </mxCell>
      </root>
    </mxGraphModel>
  </diagram>
  <diagram id="NqU5Rrg8dCzm1K05zdeV" name="1-1用户界面操作">
    <mxGraphModel dx="2230" dy="1862" grid="1" gridSize="10" guides="1" tooltips="1" connect="1" arrows="1" fold="1" page="1" pageScale="1" pageWidth="850" pageHeight="1100" math="0" shadow="0">
      <root>
        <mxCell id="0" />
        <mxCell id="1" parent="0" />
        <mxCell id="8BT3JCqSUhwMRtKss6ok-4" style="edgeStyle=orthogonalEdgeStyle;rounded=0;orthogonalLoop=1;jettySize=auto;html=1;" parent="1" source="8BT3JCqSUhwMRtKss6ok-1" target="8BT3JCqSUhwMRtKss6ok-3" edge="1">
          <mxGeometry relative="1" as="geometry" />
        </mxCell>
        <mxCell id="8BT3JCqSUhwMRtKss6ok-1" value="登录" style="ellipse;whiteSpace=wrap;html=1;" parent="1" vertex="1">
          <mxGeometry x="190" y="130" width="120" height="80" as="geometry" />
        </mxCell>
        <mxCell id="8BT3JCqSUhwMRtKss6ok-7" style="edgeStyle=orthogonalEdgeStyle;rounded=0;orthogonalLoop=1;jettySize=auto;html=1;" parent="1" source="8BT3JCqSUhwMRtKss6ok-2" target="8BT3JCqSUhwMRtKss6ok-6" edge="1">
          <mxGeometry relative="1" as="geometry" />
        </mxCell>
        <mxCell id="8BT3JCqSUhwMRtKss6ok-10" style="edgeStyle=orthogonalEdgeStyle;rounded=0;orthogonalLoop=1;jettySize=auto;html=1;entryX=0.5;entryY=0;entryDx=0;entryDy=0;" parent="1" source="8BT3JCqSUhwMRtKss6ok-2" edge="1">
          <mxGeometry relative="1" as="geometry">
            <mxPoint x="250" y="510" as="targetPoint" />
          </mxGeometry>
        </mxCell>
        <mxCell id="8BT3JCqSUhwMRtKss6ok-2" value="输入合法？&lt;div&gt;bool&lt;/div&gt;&lt;div&gt;userLanding&lt;/div&gt;" style="html=1;whiteSpace=wrap;aspect=fixed;shape=isoRectangle;" parent="1" vertex="1">
          <mxGeometry x="175" y="380" width="150" height="90" as="geometry" />
        </mxCell>
        <mxCell id="8BT3JCqSUhwMRtKss6ok-5" style="edgeStyle=orthogonalEdgeStyle;rounded=0;orthogonalLoop=1;jettySize=auto;html=1;" parent="1" source="8BT3JCqSUhwMRtKss6ok-3" target="8BT3JCqSUhwMRtKss6ok-2" edge="1">
          <mxGeometry relative="1" as="geometry" />
        </mxCell>
        <mxCell id="8BT3JCqSUhwMRtKss6ok-3" value="输入手机号与密码" style="rounded=0;whiteSpace=wrap;html=1;" parent="1" vertex="1">
          <mxGeometry x="190" y="260" width="120" height="60" as="geometry" />
        </mxCell>
        <mxCell id="8BT3JCqSUhwMRtKss6ok-23" style="edgeStyle=orthogonalEdgeStyle;rounded=0;orthogonalLoop=1;jettySize=auto;html=1;entryX=0.489;entryY=-0.025;entryDx=0;entryDy=0;entryPerimeter=0;" parent="1" source="8BT3JCqSUhwMRtKss6ok-6" target="8BT3JCqSUhwMRtKss6ok-39" edge="1">
          <mxGeometry relative="1" as="geometry">
            <mxPoint x="580" y="425" as="targetPoint" />
          </mxGeometry>
        </mxCell>
        <mxCell id="8BT3JCqSUhwMRtKss6ok-6" value="用户操作面板" style="rounded=0;whiteSpace=wrap;html=1;" parent="1" vertex="1">
          <mxGeometry x="390" y="395" width="120" height="60" as="geometry" />
        </mxCell>
        <mxCell id="8BT3JCqSUhwMRtKss6ok-8" value="Yes" style="text;html=1;align=center;verticalAlign=middle;whiteSpace=wrap;rounded=0;" parent="1" vertex="1">
          <mxGeometry x="310" y="395" width="60" height="30" as="geometry" />
        </mxCell>
        <mxCell id="8BT3JCqSUhwMRtKss6ok-11" value="No" style="text;html=1;align=center;verticalAlign=middle;whiteSpace=wrap;rounded=0;" parent="1" vertex="1">
          <mxGeometry x="250" y="470" width="60" height="30" as="geometry" />
        </mxCell>
        <mxCell id="8BT3JCqSUhwMRtKss6ok-12" value="" style="shape=table;startSize=0;container=1;collapsible=0;childLayout=tableLayout;" parent="1" vertex="1">
          <mxGeometry x="195" y="510" width="110" height="140" as="geometry" />
        </mxCell>
        <mxCell id="8BT3JCqSUhwMRtKss6ok-13" value="" style="shape=tableRow;horizontal=0;startSize=0;swimlaneHead=0;swimlaneBody=0;strokeColor=inherit;top=0;left=0;bottom=0;right=0;collapsible=0;dropTarget=0;fillColor=none;points=[[0,0.5],[1,0.5]];portConstraint=eastwest;" parent="8BT3JCqSUhwMRtKss6ok-12" vertex="1">
          <mxGeometry width="110" height="47" as="geometry" />
        </mxCell>
        <mxCell id="8BT3JCqSUhwMRtKss6ok-14" value="1注册" style="shape=partialRectangle;html=1;whiteSpace=wrap;connectable=0;strokeColor=inherit;overflow=hidden;fillColor=none;top=0;left=0;bottom=0;right=0;pointerEvents=1;" parent="8BT3JCqSUhwMRtKss6ok-13" vertex="1">
          <mxGeometry width="110" height="47" as="geometry">
            <mxRectangle width="110" height="47" as="alternateBounds" />
          </mxGeometry>
        </mxCell>
        <mxCell id="8BT3JCqSUhwMRtKss6ok-15" value="" style="shape=tableRow;horizontal=0;startSize=0;swimlaneHead=0;swimlaneBody=0;strokeColor=inherit;top=0;left=0;bottom=0;right=0;collapsible=0;dropTarget=0;fillColor=none;points=[[0,0.5],[1,0.5]];portConstraint=eastwest;" parent="8BT3JCqSUhwMRtKss6ok-12" vertex="1">
          <mxGeometry y="47" width="110" height="46" as="geometry" />
        </mxCell>
        <mxCell id="8BT3JCqSUhwMRtKss6ok-16" value="2重新输入" style="shape=partialRectangle;html=1;whiteSpace=wrap;connectable=0;strokeColor=inherit;overflow=hidden;fillColor=none;top=0;left=0;bottom=0;right=0;pointerEvents=1;" parent="8BT3JCqSUhwMRtKss6ok-15" vertex="1">
          <mxGeometry width="110" height="46" as="geometry">
            <mxRectangle width="110" height="46" as="alternateBounds" />
          </mxGeometry>
        </mxCell>
        <mxCell id="8BT3JCqSUhwMRtKss6ok-17" value="" style="shape=tableRow;horizontal=0;startSize=0;swimlaneHead=0;swimlaneBody=0;strokeColor=inherit;top=0;left=0;bottom=0;right=0;collapsible=0;dropTarget=0;fillColor=none;points=[[0,0.5],[1,0.5]];portConstraint=eastwest;" parent="8BT3JCqSUhwMRtKss6ok-12" vertex="1">
          <mxGeometry y="93" width="110" height="47" as="geometry" />
        </mxCell>
        <mxCell id="8BT3JCqSUhwMRtKss6ok-18" value="0返回上一级" style="shape=partialRectangle;html=1;whiteSpace=wrap;connectable=0;strokeColor=inherit;overflow=hidden;fillColor=none;top=0;left=0;bottom=0;right=0;pointerEvents=1;" parent="8BT3JCqSUhwMRtKss6ok-17" vertex="1">
          <mxGeometry width="110" height="47" as="geometry">
            <mxRectangle width="110" height="47" as="alternateBounds" />
          </mxGeometry>
        </mxCell>
        <mxCell id="8BT3JCqSUhwMRtKss6ok-19" style="edgeStyle=orthogonalEdgeStyle;rounded=0;orthogonalLoop=1;jettySize=auto;html=1;" parent="1" source="8BT3JCqSUhwMRtKss6ok-17" edge="1">
          <mxGeometry relative="1" as="geometry">
            <mxPoint x="130" y="626.5" as="targetPoint" />
          </mxGeometry>
        </mxCell>
        <mxCell id="8BT3JCqSUhwMRtKss6ok-20" value="1系统主界面" style="rounded=0;whiteSpace=wrap;html=1;" parent="1" vertex="1">
          <mxGeometry x="10" y="600" width="120" height="60" as="geometry" />
        </mxCell>
        <mxCell id="8BT3JCqSUhwMRtKss6ok-21" style="edgeStyle=orthogonalEdgeStyle;rounded=0;orthogonalLoop=1;jettySize=auto;html=1;entryX=0;entryY=0.5;entryDx=0;entryDy=0;" parent="1" source="8BT3JCqSUhwMRtKss6ok-15" target="8BT3JCqSUhwMRtKss6ok-3" edge="1">
          <mxGeometry relative="1" as="geometry">
            <Array as="points">
              <mxPoint x="80" y="580" />
              <mxPoint x="80" y="290" />
            </Array>
          </mxGeometry>
        </mxCell>
        <mxCell id="8BT3JCqSUhwMRtKss6ok-27" style="edgeStyle=orthogonalEdgeStyle;rounded=0;orthogonalLoop=1;jettySize=auto;html=1;" parent="1" source="8BT3JCqSUhwMRtKss6ok-24" edge="1">
          <mxGeometry relative="1" as="geometry">
            <mxPoint x="450" y="620" as="targetPoint" />
          </mxGeometry>
        </mxCell>
        <mxCell id="8BT3JCqSUhwMRtKss6ok-24" value="输入信息" style="rounded=0;whiteSpace=wrap;html=1;" parent="1" vertex="1">
          <mxGeometry x="390" y="504" width="120" height="60" as="geometry" />
        </mxCell>
        <mxCell id="8BT3JCqSUhwMRtKss6ok-25" style="edgeStyle=orthogonalEdgeStyle;rounded=0;orthogonalLoop=1;jettySize=auto;html=1;" parent="1" source="8BT3JCqSUhwMRtKss6ok-13" target="8BT3JCqSUhwMRtKss6ok-24" edge="1">
          <mxGeometry relative="1" as="geometry" />
        </mxCell>
        <mxCell id="8BT3JCqSUhwMRtKss6ok-29" style="edgeStyle=orthogonalEdgeStyle;rounded=0;orthogonalLoop=1;jettySize=auto;html=1;entryX=1;entryY=0.5;entryDx=0;entryDy=0;" parent="1" source="8BT3JCqSUhwMRtKss6ok-28" target="8BT3JCqSUhwMRtKss6ok-24" edge="1">
          <mxGeometry relative="1" as="geometry">
            <Array as="points">
              <mxPoint x="580" y="665" />
              <mxPoint x="580" y="534" />
            </Array>
          </mxGeometry>
        </mxCell>
        <mxCell id="8BT3JCqSUhwMRtKss6ok-32" style="edgeStyle=orthogonalEdgeStyle;rounded=0;orthogonalLoop=1;jettySize=auto;html=1;" parent="1" source="8BT3JCqSUhwMRtKss6ok-28" target="8BT3JCqSUhwMRtKss6ok-31" edge="1">
          <mxGeometry relative="1" as="geometry" />
        </mxCell>
        <mxCell id="8BT3JCqSUhwMRtKss6ok-28" value="已存在？" style="html=1;whiteSpace=wrap;aspect=fixed;shape=isoRectangle;" parent="1" vertex="1">
          <mxGeometry x="375" y="620" width="150" height="90" as="geometry" />
        </mxCell>
        <mxCell id="8BT3JCqSUhwMRtKss6ok-30" value="Yes" style="text;html=1;align=center;verticalAlign=middle;whiteSpace=wrap;rounded=0;" parent="1" vertex="1">
          <mxGeometry x="520" y="580" width="60" height="30" as="geometry" />
        </mxCell>
        <mxCell id="8BT3JCqSUhwMRtKss6ok-35" style="edgeStyle=orthogonalEdgeStyle;rounded=0;orthogonalLoop=1;jettySize=auto;html=1;" parent="1" source="8BT3JCqSUhwMRtKss6ok-31" target="8BT3JCqSUhwMRtKss6ok-34" edge="1">
          <mxGeometry relative="1" as="geometry" />
        </mxCell>
        <mxCell id="8BT3JCqSUhwMRtKss6ok-31" value="保存用户信息到文件" style="rounded=0;whiteSpace=wrap;html=1;" parent="1" vertex="1">
          <mxGeometry x="390" y="750" width="120" height="60" as="geometry" />
        </mxCell>
        <mxCell id="8BT3JCqSUhwMRtKss6ok-33" value="No" style="text;html=1;align=center;verticalAlign=middle;whiteSpace=wrap;rounded=0;" parent="1" vertex="1">
          <mxGeometry x="465" y="710" width="60" height="30" as="geometry" />
        </mxCell>
        <mxCell id="8BT3JCqSUhwMRtKss6ok-36" style="edgeStyle=orthogonalEdgeStyle;rounded=0;orthogonalLoop=1;jettySize=auto;html=1;entryX=0;entryY=0.5;entryDx=0;entryDy=0;" parent="1" source="8BT3JCqSUhwMRtKss6ok-34" target="8BT3JCqSUhwMRtKss6ok-1" edge="1">
          <mxGeometry relative="1" as="geometry">
            <Array as="points">
              <mxPoint x="-60" y="780" />
              <mxPoint x="-60" y="170" />
            </Array>
          </mxGeometry>
        </mxCell>
        <mxCell id="8BT3JCqSUhwMRtKss6ok-34" value="返回到登录界面" style="rounded=0;whiteSpace=wrap;html=1;" parent="1" vertex="1">
          <mxGeometry x="10" y="750" width="120" height="60" as="geometry" />
        </mxCell>
        <mxCell id="8BT3JCqSUhwMRtKss6ok-37" value="CUSTOMER_FILE" style="shape=document;whiteSpace=wrap;html=1;boundedLbl=1;" parent="1" vertex="1">
          <mxGeometry x="205" y="790" width="120" height="80" as="geometry" />
        </mxCell>
        <mxCell id="8BT3JCqSUhwMRtKss6ok-38" value="" style="shape=table;startSize=0;container=1;collapsible=0;childLayout=tableLayout;" parent="1" vertex="1">
          <mxGeometry x="580" y="320" width="150" height="160" as="geometry" />
        </mxCell>
        <mxCell id="8BT3JCqSUhwMRtKss6ok-39" value="" style="shape=tableRow;horizontal=0;startSize=0;swimlaneHead=0;swimlaneBody=0;strokeColor=inherit;top=0;left=0;bottom=0;right=0;collapsible=0;dropTarget=0;fillColor=none;points=[[0,0.5],[1,0.5]];portConstraint=eastwest;" parent="8BT3JCqSUhwMRtKss6ok-38" vertex="1">
          <mxGeometry width="150" height="40" as="geometry" />
        </mxCell>
        <mxCell id="8BT3JCqSUhwMRtKss6ok-40" value="1查看用户信息" style="shape=partialRectangle;html=1;whiteSpace=wrap;connectable=0;strokeColor=inherit;overflow=hidden;fillColor=none;top=0;left=0;bottom=0;right=0;pointerEvents=1;" parent="8BT3JCqSUhwMRtKss6ok-39" vertex="1">
          <mxGeometry width="150" height="40" as="geometry">
            <mxRectangle width="150" height="40" as="alternateBounds" />
          </mxGeometry>
        </mxCell>
        <mxCell id="8BT3JCqSUhwMRtKss6ok-41" value="" style="shape=tableRow;horizontal=0;startSize=0;swimlaneHead=0;swimlaneBody=0;strokeColor=inherit;top=0;left=0;bottom=0;right=0;collapsible=0;dropTarget=0;fillColor=none;points=[[0,0.5],[1,0.5]];portConstraint=eastwest;" parent="8BT3JCqSUhwMRtKss6ok-38" vertex="1">
          <mxGeometry y="40" width="150" height="40" as="geometry" />
        </mxCell>
        <mxCell id="8BT3JCqSUhwMRtKss6ok-42" value="2查看包裹" style="shape=partialRectangle;html=1;whiteSpace=wrap;connectable=0;strokeColor=inherit;overflow=hidden;fillColor=none;top=0;left=0;bottom=0;right=0;pointerEvents=1;" parent="8BT3JCqSUhwMRtKss6ok-41" vertex="1">
          <mxGeometry width="150" height="40" as="geometry">
            <mxRectangle width="150" height="40" as="alternateBounds" />
          </mxGeometry>
        </mxCell>
        <mxCell id="8BT3JCqSUhwMRtKss6ok-43" value="" style="shape=tableRow;horizontal=0;startSize=0;swimlaneHead=0;swimlaneBody=0;strokeColor=inherit;top=0;left=0;bottom=0;right=0;collapsible=0;dropTarget=0;fillColor=none;points=[[0,0.5],[1,0.5]];portConstraint=eastwest;" parent="8BT3JCqSUhwMRtKss6ok-38" vertex="1">
          <mxGeometry y="80" width="150" height="40" as="geometry" />
        </mxCell>
        <mxCell id="8BT3JCqSUhwMRtKss6ok-44" value="3邮寄包裹" style="shape=partialRectangle;html=1;whiteSpace=wrap;connectable=0;strokeColor=inherit;overflow=hidden;fillColor=none;top=0;left=0;bottom=0;right=0;pointerEvents=1;" parent="8BT3JCqSUhwMRtKss6ok-43" vertex="1">
          <mxGeometry width="150" height="40" as="geometry">
            <mxRectangle width="150" height="40" as="alternateBounds" />
          </mxGeometry>
        </mxCell>
        <mxCell id="8BT3JCqSUhwMRtKss6ok-45" value="" style="shape=tableRow;horizontal=0;startSize=0;swimlaneHead=0;swimlaneBody=0;strokeColor=inherit;top=0;left=0;bottom=0;right=0;collapsible=0;dropTarget=0;fillColor=none;points=[[0,0.5],[1,0.5]];portConstraint=eastwest;" parent="8BT3JCqSUhwMRtKss6ok-38" vertex="1">
          <mxGeometry y="120" width="150" height="40" as="geometry" />
        </mxCell>
        <mxCell id="8BT3JCqSUhwMRtKss6ok-46" value="0返回上一级" style="shape=partialRectangle;html=1;whiteSpace=wrap;connectable=0;strokeColor=inherit;overflow=hidden;fillColor=none;top=0;left=0;bottom=0;right=0;pointerEvents=1;" parent="8BT3JCqSUhwMRtKss6ok-45" vertex="1">
          <mxGeometry width="150" height="40" as="geometry">
            <mxRectangle width="150" height="40" as="alternateBounds" />
          </mxGeometry>
        </mxCell>
        <mxCell id="8BT3JCqSUhwMRtKss6ok-47" style="edgeStyle=orthogonalEdgeStyle;rounded=0;orthogonalLoop=1;jettySize=auto;html=1;entryX=0;entryY=0.5;entryDx=0;entryDy=0;" parent="1" source="8BT3JCqSUhwMRtKss6ok-45" target="8BT3JCqSUhwMRtKss6ok-1" edge="1">
          <mxGeometry relative="1" as="geometry">
            <mxPoint x="610" y="550.0000000000002" as="targetPoint" />
            <Array as="points">
              <mxPoint x="655" y="900" />
              <mxPoint x="-120" y="900" />
              <mxPoint x="-120" y="170" />
            </Array>
          </mxGeometry>
        </mxCell>
        <mxCell id="8BT3JCqSUhwMRtKss6ok-51" style="edgeStyle=orthogonalEdgeStyle;rounded=0;orthogonalLoop=1;jettySize=auto;html=1;" parent="1" source="8BT3JCqSUhwMRtKss6ok-48" target="8BT3JCqSUhwMRtKss6ok-50" edge="1">
          <mxGeometry relative="1" as="geometry" />
        </mxCell>
        <mxCell id="8BT3JCqSUhwMRtKss6ok-48" value="历遍链表" style="rounded=0;whiteSpace=wrap;html=1;" parent="1" vertex="1">
          <mxGeometry x="690" y="210" width="120" height="60" as="geometry" />
        </mxCell>
        <mxCell id="8BT3JCqSUhwMRtKss6ok-49" style="edgeStyle=orthogonalEdgeStyle;rounded=0;orthogonalLoop=1;jettySize=auto;html=1;entryX=0.5;entryY=1;entryDx=0;entryDy=0;" parent="1" source="8BT3JCqSUhwMRtKss6ok-39" target="8BT3JCqSUhwMRtKss6ok-48" edge="1">
          <mxGeometry relative="1" as="geometry" />
        </mxCell>
        <mxCell id="8BT3JCqSUhwMRtKss6ok-53" style="edgeStyle=orthogonalEdgeStyle;rounded=0;orthogonalLoop=1;jettySize=auto;html=1;entryX=0;entryY=0.25;entryDx=0;entryDy=0;" parent="1" source="8BT3JCqSUhwMRtKss6ok-50" target="8BT3JCqSUhwMRtKss6ok-52" edge="1">
          <mxGeometry relative="1" as="geometry" />
        </mxCell>
        <mxCell id="8BT3JCqSUhwMRtKss6ok-55" style="edgeStyle=orthogonalEdgeStyle;rounded=0;orthogonalLoop=1;jettySize=auto;html=1;entryX=0.5;entryY=1;entryDx=0;entryDy=0;" parent="1" source="8BT3JCqSUhwMRtKss6ok-50" target="8BT3JCqSUhwMRtKss6ok-54" edge="1">
          <mxGeometry relative="1" as="geometry" />
        </mxCell>
        <mxCell id="8BT3JCqSUhwMRtKss6ok-50" value="查询成功？" style="html=1;whiteSpace=wrap;aspect=fixed;shape=isoRectangle;" parent="1" vertex="1">
          <mxGeometry x="675" y="70" width="150" height="90" as="geometry" />
        </mxCell>
        <mxCell id="8BT3JCqSUhwMRtKss6ok-52" value="显示所有信息" style="rounded=0;whiteSpace=wrap;html=1;" parent="1" vertex="1">
          <mxGeometry x="880" y="85" width="120" height="60" as="geometry" />
        </mxCell>
        <mxCell id="8BT3JCqSUhwMRtKss6ok-54" value="未找到用户信息" style="rounded=0;whiteSpace=wrap;html=1;" parent="1" vertex="1">
          <mxGeometry x="690" y="-40" width="120" height="60" as="geometry" />
        </mxCell>
        <mxCell id="8BT3JCqSUhwMRtKss6ok-56" value="Yes" style="text;html=1;align=center;verticalAlign=middle;whiteSpace=wrap;rounded=0;" parent="1" vertex="1">
          <mxGeometry x="810" y="120" width="60" height="30" as="geometry" />
        </mxCell>
        <mxCell id="8BT3JCqSUhwMRtKss6ok-57" value="No" style="text;html=1;align=center;verticalAlign=middle;whiteSpace=wrap;rounded=0;" parent="1" vertex="1">
          <mxGeometry x="750" y="40" width="60" height="30" as="geometry" />
        </mxCell>
        <mxCell id="2FDTSqHL-l_n9-h2bagA-2" value="与2-3共用函数，请跳转" style="ellipse;whiteSpace=wrap;html=1;aspect=fixed;" parent="1" vertex="1">
          <mxGeometry x="750" y="380" width="80" height="80" as="geometry" />
        </mxCell>
        <mxCell id="2FDTSqHL-l_n9-h2bagA-3" style="edgeStyle=orthogonalEdgeStyle;rounded=0;orthogonalLoop=1;jettySize=auto;html=1;" parent="1" source="8BT3JCqSUhwMRtKss6ok-43" target="2FDTSqHL-l_n9-h2bagA-2" edge="1">
          <mxGeometry relative="1" as="geometry" />
        </mxCell>
        <mxCell id="ZXlgMxBlRHSjm0kewFXu-1" style="edgeStyle=orthogonalEdgeStyle;rounded=0;orthogonalLoop=1;jettySize=auto;html=1;" parent="1" source="ZXlgMxBlRHSjm0kewFXu-2" edge="1">
          <mxGeometry relative="1" as="geometry">
            <mxPoint x="1150" y="380" as="targetPoint" />
          </mxGeometry>
        </mxCell>
        <mxCell id="ZXlgMxBlRHSjm0kewFXu-2" value="查找用户包裹" style="rounded=0;whiteSpace=wrap;html=1;" parent="1" vertex="1">
          <mxGeometry x="830" y="350" width="120" height="60" as="geometry" />
        </mxCell>
        <mxCell id="ZXlgMxBlRHSjm0kewFXu-3" value="&lt;div style=&quot;color: rgb(171, 178, 191); background-color: rgb(35, 39, 46); font-family: Consolas, &amp;quot;Courier New&amp;quot;, monospace; font-size: 14px; line-height: 19px; white-space: pre;&quot;&gt;&lt;span style=&quot;color: #d19a66;&quot;&gt;RECEIVED_FILE&lt;/span&gt;&lt;/div&gt;" style="shape=document;whiteSpace=wrap;html=1;boundedLbl=1;" parent="1" vertex="1">
          <mxGeometry x="980" y="290" width="120" height="80" as="geometry" />
        </mxCell>
        <mxCell id="ZXlgMxBlRHSjm0kewFXu-4" value="是否存在" style="html=1;whiteSpace=wrap;aspect=fixed;shape=isoRectangle;" parent="1" vertex="1">
          <mxGeometry x="1150" y="335" width="150" height="90" as="geometry" />
        </mxCell>
        <mxCell id="ZXlgMxBlRHSjm0kewFXu-5" value="无法打开文件则返回" style="text;html=1;align=center;verticalAlign=middle;whiteSpace=wrap;rounded=0;" parent="1" vertex="1">
          <mxGeometry x="980" y="385" width="130" height="30" as="geometry" />
        </mxCell>
        <mxCell id="ZXlgMxBlRHSjm0kewFXu-6" value="暂未有包裹" style="rounded=0;whiteSpace=wrap;html=1;" parent="1" vertex="1">
          <mxGeometry x="1340" y="320" width="120" height="60" as="geometry" />
        </mxCell>
        <mxCell id="ZXlgMxBlRHSjm0kewFXu-7" value="" style="curved=1;endArrow=classic;html=1;rounded=0;entryX=0;entryY=0.5;entryDx=0;entryDy=0;" parent="1" source="ZXlgMxBlRHSjm0kewFXu-4" target="ZXlgMxBlRHSjm0kewFXu-6" edge="1">
          <mxGeometry width="50" height="50" relative="1" as="geometry">
            <mxPoint x="1300" y="430" as="sourcePoint" />
            <mxPoint x="1370.7106781186549" y="380" as="targetPoint" />
          </mxGeometry>
        </mxCell>
        <mxCell id="ZXlgMxBlRHSjm0kewFXu-8" value="" style="curved=1;endArrow=classic;html=1;rounded=0;entryX=0;entryY=0.5;entryDx=0;entryDy=0;" parent="1" source="ZXlgMxBlRHSjm0kewFXu-4" edge="1">
          <mxGeometry width="50" height="50" relative="1" as="geometry">
            <mxPoint x="1300" y="430" as="sourcePoint" />
            <mxPoint x="1340" y="410" as="targetPoint" />
          </mxGeometry>
        </mxCell>
        <mxCell id="ZXlgMxBlRHSjm0kewFXu-9" value="No" style="text;html=1;align=center;verticalAlign=middle;whiteSpace=wrap;rounded=0;" parent="1" vertex="1">
          <mxGeometry x="1280" y="325" width="60" height="30" as="geometry" />
        </mxCell>
        <mxCell id="ZXlgMxBlRHSjm0kewFXu-10" value="" style="curved=1;endArrow=classic;html=1;rounded=0;entryX=0;entryY=0.5;entryDx=0;entryDy=0;" parent="1" source="ZXlgMxBlRHSjm0kewFXu-6" target="ZXlgMxBlRHSjm0kewFXu-13" edge="1">
          <mxGeometry width="50" height="50" relative="1" as="geometry">
            <mxPoint x="1460" y="400" as="sourcePoint" />
            <mxPoint x="1550" y="380" as="targetPoint" />
          </mxGeometry>
        </mxCell>
        <mxCell id="ZXlgMxBlRHSjm0kewFXu-11" value="" style="curved=1;endArrow=classic;html=1;rounded=0;entryX=0;entryY=0.5;entryDx=0;entryDy=0;" parent="1" target="ZXlgMxBlRHSjm0kewFXu-13" edge="1">
          <mxGeometry width="50" height="50" relative="1" as="geometry">
            <mxPoint x="1460" y="390" as="sourcePoint" />
            <mxPoint x="1550" y="380" as="targetPoint" />
          </mxGeometry>
        </mxCell>
        <mxCell id="ZXlgMxBlRHSjm0kewFXu-12" value="" style="shape=table;startSize=0;container=1;collapsible=0;childLayout=tableLayout;" parent="1" vertex="1">
          <mxGeometry x="1550" y="340" width="80" height="80" as="geometry" />
        </mxCell>
        <mxCell id="ZXlgMxBlRHSjm0kewFXu-13" value="" style="shape=tableRow;horizontal=0;startSize=0;swimlaneHead=0;swimlaneBody=0;strokeColor=inherit;top=0;left=0;bottom=0;right=0;collapsible=0;dropTarget=0;fillColor=none;points=[[0,0.5],[1,0.5]];portConstraint=eastwest;" parent="ZXlgMxBlRHSjm0kewFXu-12" vertex="1">
          <mxGeometry width="80" height="40" as="geometry" />
        </mxCell>
        <mxCell id="ZXlgMxBlRHSjm0kewFXu-14" value="1取件" style="shape=partialRectangle;html=1;whiteSpace=wrap;connectable=0;strokeColor=inherit;overflow=hidden;fillColor=none;top=0;left=0;bottom=0;right=0;pointerEvents=1;" parent="ZXlgMxBlRHSjm0kewFXu-13" vertex="1">
          <mxGeometry width="80" height="40" as="geometry">
            <mxRectangle width="80" height="40" as="alternateBounds" />
          </mxGeometry>
        </mxCell>
        <mxCell id="ZXlgMxBlRHSjm0kewFXu-15" value="" style="shape=tableRow;horizontal=0;startSize=0;swimlaneHead=0;swimlaneBody=0;strokeColor=inherit;top=0;left=0;bottom=0;right=0;collapsible=0;dropTarget=0;fillColor=none;points=[[0,0.5],[1,0.5]];portConstraint=eastwest;" parent="ZXlgMxBlRHSjm0kewFXu-12" vertex="1">
          <mxGeometry y="40" width="80" height="40" as="geometry" />
        </mxCell>
        <mxCell id="ZXlgMxBlRHSjm0kewFXu-16" value="0上一级" style="shape=partialRectangle;html=1;whiteSpace=wrap;connectable=0;strokeColor=inherit;overflow=hidden;fillColor=none;top=0;left=0;bottom=0;right=0;pointerEvents=1;" parent="ZXlgMxBlRHSjm0kewFXu-15" vertex="1">
          <mxGeometry width="80" height="40" as="geometry">
            <mxRectangle width="80" height="40" as="alternateBounds" />
          </mxGeometry>
        </mxCell>
        <mxCell id="ZXlgMxBlRHSjm0kewFXu-17" style="edgeStyle=orthogonalEdgeStyle;rounded=0;orthogonalLoop=1;jettySize=auto;html=1;" parent="1" source="ZXlgMxBlRHSjm0kewFXu-18" target="ZXlgMxBlRHSjm0kewFXu-22" edge="1">
          <mxGeometry relative="1" as="geometry" />
        </mxCell>
        <mxCell id="ZXlgMxBlRHSjm0kewFXu-18" value="输入取件码" style="rounded=0;whiteSpace=wrap;html=1;" parent="1" vertex="1">
          <mxGeometry x="1520" y="470" width="120" height="60" as="geometry" />
        </mxCell>
        <mxCell id="ZXlgMxBlRHSjm0kewFXu-19" style="edgeStyle=orthogonalEdgeStyle;rounded=0;orthogonalLoop=1;jettySize=auto;html=1;" parent="1" source="ZXlgMxBlRHSjm0kewFXu-13" target="ZXlgMxBlRHSjm0kewFXu-18" edge="1">
          <mxGeometry relative="1" as="geometry">
            <Array as="points">
              <mxPoint x="1660" y="360" />
              <mxPoint x="1660" y="440" />
              <mxPoint x="1580" y="440" />
            </Array>
          </mxGeometry>
        </mxCell>
        <mxCell id="ZXlgMxBlRHSjm0kewFXu-20" value="&lt;div style=&quot;color: rgb(171, 178, 191); background-color: rgb(35, 39, 46); font-family: Consolas, &amp;quot;Courier New&amp;quot;, monospace; font-size: 14px; line-height: 19px; white-space: pre;&quot;&gt;&lt;span style=&quot;color: #d19a66;&quot;&gt;RECEIVED_FILE&lt;/span&gt;&lt;/div&gt;" style="shape=document;whiteSpace=wrap;html=1;boundedLbl=1;" parent="1" vertex="1">
          <mxGeometry x="800" y="585" width="120" height="80" as="geometry" />
        </mxCell>
        <mxCell id="ZXlgMxBlRHSjm0kewFXu-21" style="edgeStyle=orthogonalEdgeStyle;rounded=0;orthogonalLoop=1;jettySize=auto;html=1;" parent="1" source="ZXlgMxBlRHSjm0kewFXu-22" target="ZXlgMxBlRHSjm0kewFXu-23" edge="1">
          <mxGeometry relative="1" as="geometry" />
        </mxCell>
        <mxCell id="ZXlgMxBlRHSjm0kewFXu-22" value="历遍" style="rounded=0;whiteSpace=wrap;html=1;" parent="1" vertex="1">
          <mxGeometry x="670" y="540" width="120" height="60" as="geometry" />
        </mxCell>
        <mxCell id="ZXlgMxBlRHSjm0kewFXu-23" value="匹配package_id 和 phone_number成功？" style="html=1;whiteSpace=wrap;aspect=fixed;shape=isoRectangle;" parent="1" vertex="1">
          <mxGeometry x="930" y="525" width="150" height="90" as="geometry" />
        </mxCell>
        <mxCell id="ZXlgMxBlRHSjm0kewFXu-24" value="" style="shape=table;startSize=0;container=1;collapsible=0;childLayout=tableLayout;" parent="1" vertex="1">
          <mxGeometry x="1140" y="530" width="60" height="80" as="geometry" />
        </mxCell>
        <mxCell id="ZXlgMxBlRHSjm0kewFXu-25" value="" style="shape=tableRow;horizontal=0;startSize=0;swimlaneHead=0;swimlaneBody=0;strokeColor=inherit;top=0;left=0;bottom=0;right=0;collapsible=0;dropTarget=0;fillColor=none;points=[[0,0.5],[1,0.5]];portConstraint=eastwest;" parent="ZXlgMxBlRHSjm0kewFXu-24" vertex="1">
          <mxGeometry width="60" height="40" as="geometry" />
        </mxCell>
        <mxCell id="ZXlgMxBlRHSjm0kewFXu-26" value="id_box.txt" style="shape=partialRectangle;html=1;whiteSpace=wrap;connectable=0;strokeColor=inherit;overflow=hidden;fillColor=none;top=0;left=0;bottom=0;right=0;pointerEvents=1;" parent="ZXlgMxBlRHSjm0kewFXu-25" vertex="1">
          <mxGeometry width="60" height="40" as="geometry">
            <mxRectangle width="60" height="40" as="alternateBounds" />
          </mxGeometry>
        </mxCell>
        <mxCell id="ZXlgMxBlRHSjm0kewFXu-27" value="" style="shape=tableRow;horizontal=0;startSize=0;swimlaneHead=0;swimlaneBody=0;strokeColor=inherit;top=0;left=0;bottom=0;right=0;collapsible=0;dropTarget=0;fillColor=none;points=[[0,0.5],[1,0.5]];portConstraint=eastwest;" parent="ZXlgMxBlRHSjm0kewFXu-24" vertex="1">
          <mxGeometry y="40" width="60" height="40" as="geometry" />
        </mxCell>
        <mxCell id="ZXlgMxBlRHSjm0kewFXu-28" value="temp.txt" style="shape=partialRectangle;html=1;whiteSpace=wrap;connectable=0;strokeColor=inherit;overflow=hidden;fillColor=none;top=0;left=0;bottom=0;right=0;pointerEvents=1;" parent="ZXlgMxBlRHSjm0kewFXu-27" vertex="1">
          <mxGeometry width="60" height="40" as="geometry">
            <mxRectangle width="60" height="40" as="alternateBounds" />
          </mxGeometry>
        </mxCell>
        <mxCell id="ZXlgMxBlRHSjm0kewFXu-29" value="" style="curved=1;endArrow=classic;html=1;rounded=0;entryX=0;entryY=0.5;entryDx=0;entryDy=0;" parent="1" source="ZXlgMxBlRHSjm0kewFXu-23" target="ZXlgMxBlRHSjm0kewFXu-25" edge="1">
          <mxGeometry width="50" height="50" relative="1" as="geometry">
            <mxPoint x="1080" y="620" as="sourcePoint" />
            <mxPoint x="1150.7106781186549" y="570" as="targetPoint" />
          </mxGeometry>
        </mxCell>
        <mxCell id="ZXlgMxBlRHSjm0kewFXu-30" value="" style="curved=1;endArrow=classic;html=1;rounded=0;entryX=0;entryY=0.5;entryDx=0;entryDy=0;" parent="1" source="ZXlgMxBlRHSjm0kewFXu-23" target="ZXlgMxBlRHSjm0kewFXu-27" edge="1">
          <mxGeometry width="50" height="50" relative="1" as="geometry">
            <mxPoint x="1080" y="620" as="sourcePoint" />
            <mxPoint x="1150.7106781186549" y="570" as="targetPoint" />
          </mxGeometry>
        </mxCell>
        <mxCell id="ZXlgMxBlRHSjm0kewFXu-31" value="显示所有取件码" style="rounded=0;whiteSpace=wrap;html=1;" parent="1" vertex="1">
          <mxGeometry x="1340" y="380" width="120" height="60" as="geometry" />
        </mxCell>
        <mxCell id="ZXlgMxBlRHSjm0kewFXu-32" value="Yes" style="text;html=1;align=center;verticalAlign=middle;whiteSpace=wrap;rounded=0;" parent="1" vertex="1">
          <mxGeometry x="1275" y="410" width="60" height="30" as="geometry" />
        </mxCell>
        <mxCell id="ZXlgMxBlRHSjm0kewFXu-33" value="No" style="text;html=1;align=center;verticalAlign=middle;whiteSpace=wrap;rounded=0;" parent="1" vertex="1">
          <mxGeometry x="1070" y="585" width="60" height="30" as="geometry" />
        </mxCell>
        <mxCell id="ZXlgMxBlRHSjm0kewFXu-34" value="Yes" style="text;html=1;align=center;verticalAlign=middle;whiteSpace=wrap;rounded=0;" parent="1" vertex="1">
          <mxGeometry x="1070" y="525" width="60" height="30" as="geometry" />
        </mxCell>
        <mxCell id="ZXlgMxBlRHSjm0kewFXu-35" style="edgeStyle=orthogonalEdgeStyle;rounded=0;orthogonalLoop=1;jettySize=auto;html=1;" parent="1" source="ZXlgMxBlRHSjm0kewFXu-36" target="ZXlgMxBlRHSjm0kewFXu-38" edge="1">
          <mxGeometry relative="1" as="geometry" />
        </mxCell>
        <mxCell id="ZXlgMxBlRHSjm0kewFXu-36" value="将temp更新为&lt;div&gt;&lt;span style=&quot;color: rgb(209, 154, 102); font-family: Consolas, &amp;quot;Courier New&amp;quot;, monospace; font-size: 14px; white-space: pre; background-color: rgb(35, 39, 46);&quot;&gt;RECEIVED_FILE&lt;/span&gt;&lt;/div&gt;" style="rounded=0;whiteSpace=wrap;html=1;" parent="1" vertex="1">
          <mxGeometry x="1230" y="560" width="120" height="60" as="geometry" />
        </mxCell>
        <mxCell id="ZXlgMxBlRHSjm0kewFXu-37" style="edgeStyle=orthogonalEdgeStyle;rounded=0;orthogonalLoop=1;jettySize=auto;html=1;" parent="1" source="ZXlgMxBlRHSjm0kewFXu-27" target="ZXlgMxBlRHSjm0kewFXu-36" edge="1">
          <mxGeometry relative="1" as="geometry" />
        </mxCell>
        <mxCell id="ZXlgMxBlRHSjm0kewFXu-38" value="是否取出成功" style="html=1;whiteSpace=wrap;aspect=fixed;shape=isoRectangle;" parent="1" vertex="1">
          <mxGeometry x="1390" y="545" width="150" height="90" as="geometry" />
        </mxCell>
        <mxCell id="ZXlgMxBlRHSjm0kewFXu-39" value="" style="shape=table;startSize=0;container=1;collapsible=0;childLayout=tableLayout;" parent="1" vertex="1">
          <mxGeometry x="1600" y="550" width="110" height="80" as="geometry" />
        </mxCell>
        <mxCell id="ZXlgMxBlRHSjm0kewFXu-40" value="" style="shape=tableRow;horizontal=0;startSize=0;swimlaneHead=0;swimlaneBody=0;strokeColor=inherit;top=0;left=0;bottom=0;right=0;collapsible=0;dropTarget=0;fillColor=none;points=[[0,0.5],[1,0.5]];portConstraint=eastwest;" parent="ZXlgMxBlRHSjm0kewFXu-39" vertex="1">
          <mxGeometry width="110" height="40" as="geometry" />
        </mxCell>
        <mxCell id="ZXlgMxBlRHSjm0kewFXu-41" value="取走成功！" style="shape=partialRectangle;html=1;whiteSpace=wrap;connectable=0;strokeColor=inherit;overflow=hidden;fillColor=none;top=0;left=0;bottom=0;right=0;pointerEvents=1;" parent="ZXlgMxBlRHSjm0kewFXu-40" vertex="1">
          <mxGeometry width="110" height="40" as="geometry">
            <mxRectangle width="110" height="40" as="alternateBounds" />
          </mxGeometry>
        </mxCell>
        <mxCell id="ZXlgMxBlRHSjm0kewFXu-42" value="" style="shape=tableRow;horizontal=0;startSize=0;swimlaneHead=0;swimlaneBody=0;strokeColor=inherit;top=0;left=0;bottom=0;right=0;collapsible=0;dropTarget=0;fillColor=none;points=[[0,0.5],[1,0.5]];portConstraint=eastwest;" parent="ZXlgMxBlRHSjm0kewFXu-39" vertex="1">
          <mxGeometry y="40" width="110" height="40" as="geometry" />
        </mxCell>
        <mxCell id="ZXlgMxBlRHSjm0kewFXu-43" value="未找到对应的包裹" style="shape=partialRectangle;html=1;whiteSpace=wrap;connectable=0;strokeColor=inherit;overflow=hidden;fillColor=none;top=0;left=0;bottom=0;right=0;pointerEvents=1;" parent="ZXlgMxBlRHSjm0kewFXu-42" vertex="1">
          <mxGeometry width="110" height="40" as="geometry">
            <mxRectangle width="110" height="40" as="alternateBounds" />
          </mxGeometry>
        </mxCell>
        <mxCell id="ZXlgMxBlRHSjm0kewFXu-44" value="" style="curved=1;endArrow=classic;html=1;rounded=0;entryX=0;entryY=0.5;entryDx=0;entryDy=0;" parent="1" source="ZXlgMxBlRHSjm0kewFXu-38" target="ZXlgMxBlRHSjm0kewFXu-40" edge="1">
          <mxGeometry width="50" height="50" relative="1" as="geometry">
            <mxPoint x="1540" y="640" as="sourcePoint" />
            <mxPoint x="1610.7106781186549" y="590" as="targetPoint" />
          </mxGeometry>
        </mxCell>
        <mxCell id="ZXlgMxBlRHSjm0kewFXu-45" value="" style="curved=1;endArrow=classic;html=1;rounded=0;entryX=0;entryY=0.5;entryDx=0;entryDy=0;" parent="1" source="ZXlgMxBlRHSjm0kewFXu-38" target="ZXlgMxBlRHSjm0kewFXu-42" edge="1">
          <mxGeometry width="50" height="50" relative="1" as="geometry">
            <mxPoint x="1540" y="640" as="sourcePoint" />
            <mxPoint x="1610.7106781186549" y="590" as="targetPoint" />
          </mxGeometry>
        </mxCell>
        <mxCell id="ZXlgMxBlRHSjm0kewFXu-46" style="edgeStyle=orthogonalEdgeStyle;rounded=0;orthogonalLoop=1;jettySize=auto;html=1;entryX=0;entryY=0.5;entryDx=0;entryDy=0;" parent="1" source="8BT3JCqSUhwMRtKss6ok-41" target="ZXlgMxBlRHSjm0kewFXu-2" edge="1">
          <mxGeometry relative="1" as="geometry" />
        </mxCell>
        <mxCell id="ZXlgMxBlRHSjm0kewFXu-47" value="" style="curved=1;endArrow=classic;html=1;rounded=0;entryX=1;entryY=0.5;entryDx=0;entryDy=0;" parent="1" source="ZXlgMxBlRHSjm0kewFXu-15" target="8BT3JCqSUhwMRtKss6ok-45" edge="1">
          <mxGeometry width="50" height="50" relative="1" as="geometry">
            <mxPoint x="1479.2893218813451" y="450" as="sourcePoint" />
            <mxPoint x="-70.71067811865476" y="60" as="targetPoint" />
            <Array as="points">
              <mxPoint x="1460" y="480" />
            </Array>
          </mxGeometry>
        </mxCell>
        <mxCell id="p4a1wfM1c7DMowI15ZCt-1" value="暂未加入上门服务环节" style="shape=note;whiteSpace=wrap;html=1;backgroundOutline=1;darkOpacity=0.05;" vertex="1" parent="1">
          <mxGeometry x="1390" y="650" width="80" height="100" as="geometry" />
        </mxCell>
      </root>
    </mxGraphModel>
  </diagram>
  <diagram id="ZT7Us1G1oD3yZAX31GNc" name="2-1用户管理">
    <mxGraphModel dx="2133" dy="1178" grid="1" gridSize="10" guides="1" tooltips="1" connect="1" arrows="1" fold="1" page="1" pageScale="1" pageWidth="850" pageHeight="1100" math="0" shadow="0">
      <root>
        <mxCell id="0" />
        <mxCell id="1" parent="0" />
        <mxCell id="VNNzNlVyWVjhJS67TrW1-1" value="用户管理界面" style="shape=table;startSize=30;container=1;collapsible=0;childLayout=tableLayout;" vertex="1" parent="1">
          <mxGeometry x="230" y="170" width="140" height="1100" as="geometry" />
        </mxCell>
        <mxCell id="VNNzNlVyWVjhJS67TrW1-2" value="" style="shape=tableRow;horizontal=0;startSize=0;swimlaneHead=0;swimlaneBody=0;strokeColor=inherit;top=0;left=0;bottom=0;right=0;collapsible=0;dropTarget=0;fillColor=none;points=[[0,0.5],[1,0.5]];portConstraint=eastwest;" vertex="1" parent="VNNzNlVyWVjhJS67TrW1-1">
          <mxGeometry y="30" width="140" height="177" as="geometry" />
        </mxCell>
        <mxCell id="VNNzNlVyWVjhJS67TrW1-3" value="1添加" style="shape=partialRectangle;html=1;whiteSpace=wrap;connectable=0;strokeColor=inherit;overflow=hidden;fillColor=none;top=0;left=0;bottom=0;right=0;pointerEvents=1;" vertex="1" parent="VNNzNlVyWVjhJS67TrW1-2">
          <mxGeometry width="140" height="177" as="geometry">
            <mxRectangle width="140" height="177" as="alternateBounds" />
          </mxGeometry>
        </mxCell>
        <mxCell id="VNNzNlVyWVjhJS67TrW1-4" value="" style="shape=tableRow;horizontal=0;startSize=0;swimlaneHead=0;swimlaneBody=0;strokeColor=inherit;top=0;left=0;bottom=0;right=0;collapsible=0;dropTarget=0;fillColor=none;points=[[0,0.5],[1,0.5]];portConstraint=eastwest;" vertex="1" parent="VNNzNlVyWVjhJS67TrW1-1">
          <mxGeometry y="207" width="140" height="181" as="geometry" />
        </mxCell>
        <mxCell id="VNNzNlVyWVjhJS67TrW1-5" value="2查询" style="shape=partialRectangle;html=1;whiteSpace=wrap;connectable=0;strokeColor=inherit;overflow=hidden;fillColor=none;top=0;left=0;bottom=0;right=0;pointerEvents=1;" vertex="1" parent="VNNzNlVyWVjhJS67TrW1-4">
          <mxGeometry width="140" height="181" as="geometry">
            <mxRectangle width="140" height="181" as="alternateBounds" />
          </mxGeometry>
        </mxCell>
        <mxCell id="VNNzNlVyWVjhJS67TrW1-6" value="" style="shape=tableRow;horizontal=0;startSize=0;swimlaneHead=0;swimlaneBody=0;strokeColor=inherit;top=0;left=0;bottom=0;right=0;collapsible=0;dropTarget=0;fillColor=none;points=[[0,0.5],[1,0.5]];portConstraint=eastwest;" vertex="1" parent="VNNzNlVyWVjhJS67TrW1-1">
          <mxGeometry y="388" width="140" height="177" as="geometry" />
        </mxCell>
        <mxCell id="VNNzNlVyWVjhJS67TrW1-7" value="3删除" style="shape=partialRectangle;html=1;whiteSpace=wrap;connectable=0;strokeColor=inherit;overflow=hidden;fillColor=none;top=0;left=0;bottom=0;right=0;pointerEvents=1;" vertex="1" parent="VNNzNlVyWVjhJS67TrW1-6">
          <mxGeometry width="140" height="177" as="geometry">
            <mxRectangle width="140" height="177" as="alternateBounds" />
          </mxGeometry>
        </mxCell>
        <mxCell id="VNNzNlVyWVjhJS67TrW1-8" value="" style="shape=tableRow;horizontal=0;startSize=0;swimlaneHead=0;swimlaneBody=0;strokeColor=inherit;top=0;left=0;bottom=0;right=0;collapsible=0;dropTarget=0;fillColor=none;points=[[0,0.5],[1,0.5]];portConstraint=eastwest;" vertex="1" parent="VNNzNlVyWVjhJS67TrW1-1">
          <mxGeometry y="565" width="140" height="177" as="geometry" />
        </mxCell>
        <mxCell id="VNNzNlVyWVjhJS67TrW1-9" value="4保存数据到文件" style="shape=partialRectangle;html=1;whiteSpace=wrap;connectable=0;strokeColor=inherit;overflow=hidden;fillColor=none;top=0;left=0;bottom=0;right=0;pointerEvents=1;" vertex="1" parent="VNNzNlVyWVjhJS67TrW1-8">
          <mxGeometry width="140" height="177" as="geometry">
            <mxRectangle width="140" height="177" as="alternateBounds" />
          </mxGeometry>
        </mxCell>
        <mxCell id="VNNzNlVyWVjhJS67TrW1-10" value="" style="shape=tableRow;horizontal=0;startSize=0;swimlaneHead=0;swimlaneBody=0;strokeColor=inherit;top=0;left=0;bottom=0;right=0;collapsible=0;dropTarget=0;fillColor=none;points=[[0,0.5],[1,0.5]];portConstraint=eastwest;" vertex="1" parent="VNNzNlVyWVjhJS67TrW1-1">
          <mxGeometry y="742" width="140" height="181" as="geometry" />
        </mxCell>
        <mxCell id="VNNzNlVyWVjhJS67TrW1-11" value="5从文件中加载数据" style="shape=partialRectangle;html=1;whiteSpace=wrap;connectable=0;strokeColor=inherit;overflow=hidden;fillColor=none;top=0;left=0;bottom=0;right=0;pointerEvents=1;" vertex="1" parent="VNNzNlVyWVjhJS67TrW1-10">
          <mxGeometry width="140" height="181" as="geometry">
            <mxRectangle width="140" height="181" as="alternateBounds" />
          </mxGeometry>
        </mxCell>
        <mxCell id="VNNzNlVyWVjhJS67TrW1-12" value="" style="shape=tableRow;horizontal=0;startSize=0;swimlaneHead=0;swimlaneBody=0;strokeColor=inherit;top=0;left=0;bottom=0;right=0;collapsible=0;dropTarget=0;fillColor=none;points=[[0,0.5],[1,0.5]];portConstraint=eastwest;" vertex="1" parent="VNNzNlVyWVjhJS67TrW1-1">
          <mxGeometry y="923" width="140" height="177" as="geometry" />
        </mxCell>
        <mxCell id="VNNzNlVyWVjhJS67TrW1-13" value="0返回上一级" style="shape=partialRectangle;html=1;whiteSpace=wrap;connectable=0;strokeColor=inherit;overflow=hidden;fillColor=none;top=0;left=0;bottom=0;right=0;pointerEvents=1;" vertex="1" parent="VNNzNlVyWVjhJS67TrW1-12">
          <mxGeometry width="140" height="177" as="geometry">
            <mxRectangle width="140" height="177" as="alternateBounds" />
          </mxGeometry>
        </mxCell>
        <mxCell id="VNNzNlVyWVjhJS67TrW1-17" style="edgeStyle=orthogonalEdgeStyle;rounded=0;orthogonalLoop=1;jettySize=auto;html=1;" edge="1" parent="1" source="VNNzNlVyWVjhJS67TrW1-14" target="VNNzNlVyWVjhJS67TrW1-16">
          <mxGeometry relative="1" as="geometry" />
        </mxCell>
        <mxCell id="VNNzNlVyWVjhJS67TrW1-14" value="输入信息" style="rounded=0;whiteSpace=wrap;html=1;" vertex="1" parent="1">
          <mxGeometry x="440" y="190" width="120" height="60" as="geometry" />
        </mxCell>
        <mxCell id="VNNzNlVyWVjhJS67TrW1-15" style="edgeStyle=orthogonalEdgeStyle;rounded=0;orthogonalLoop=1;jettySize=auto;html=1;entryX=0;entryY=0.5;entryDx=0;entryDy=0;" edge="1" parent="1" source="VNNzNlVyWVjhJS67TrW1-2" target="VNNzNlVyWVjhJS67TrW1-14">
          <mxGeometry relative="1" as="geometry" />
        </mxCell>
        <mxCell id="VNNzNlVyWVjhJS67TrW1-19" style="edgeStyle=orthogonalEdgeStyle;rounded=0;orthogonalLoop=1;jettySize=auto;html=1;entryX=1;entryY=0.5;entryDx=0;entryDy=0;" edge="1" parent="1" source="VNNzNlVyWVjhJS67TrW1-16" target="VNNzNlVyWVjhJS67TrW1-18">
          <mxGeometry relative="1" as="geometry" />
        </mxCell>
        <mxCell id="VNNzNlVyWVjhJS67TrW1-23" style="edgeStyle=orthogonalEdgeStyle;rounded=0;orthogonalLoop=1;jettySize=auto;html=1;" edge="1" parent="1" source="VNNzNlVyWVjhJS67TrW1-16" target="VNNzNlVyWVjhJS67TrW1-22">
          <mxGeometry relative="1" as="geometry" />
        </mxCell>
        <mxCell id="VNNzNlVyWVjhJS67TrW1-16" value="是否重复&lt;div&gt;（手机号判断）&lt;/div&gt;" style="html=1;whiteSpace=wrap;aspect=fixed;shape=isoRectangle;" vertex="1" parent="1">
          <mxGeometry x="620" y="175" width="150" height="90" as="geometry" />
        </mxCell>
        <mxCell id="VNNzNlVyWVjhJS67TrW1-20" style="edgeStyle=orthogonalEdgeStyle;rounded=0;orthogonalLoop=1;jettySize=auto;html=1;entryX=0.5;entryY=0;entryDx=0;entryDy=0;" edge="1" parent="1" source="VNNzNlVyWVjhJS67TrW1-18" target="VNNzNlVyWVjhJS67TrW1-14">
          <mxGeometry relative="1" as="geometry">
            <Array as="points">
              <mxPoint x="500" y="130" />
            </Array>
          </mxGeometry>
        </mxCell>
        <mxCell id="VNNzNlVyWVjhJS67TrW1-18" value="重新输入信息" style="rounded=0;whiteSpace=wrap;html=1;" vertex="1" parent="1">
          <mxGeometry x="530" y="100" width="120" height="60" as="geometry" />
        </mxCell>
        <mxCell id="VNNzNlVyWVjhJS67TrW1-21" value="Yes" style="text;html=1;align=center;verticalAlign=middle;whiteSpace=wrap;rounded=0;" vertex="1" parent="1">
          <mxGeometry x="650" y="100" width="60" height="30" as="geometry" />
        </mxCell>
        <mxCell id="VNNzNlVyWVjhJS67TrW1-22" value="保存到文件" style="rounded=0;whiteSpace=wrap;html=1;" vertex="1" parent="1">
          <mxGeometry x="900" y="190" width="120" height="60" as="geometry" />
        </mxCell>
        <mxCell id="VNNzNlVyWVjhJS67TrW1-24" value="&lt;div style=&quot;color: rgb(171, 178, 191); background-color: rgb(35, 39, 46); font-family: Consolas, &amp;quot;Courier New&amp;quot;, monospace; font-size: 14px; line-height: 19px; white-space: pre;&quot;&gt;&lt;span style=&quot;color: #d19a66;&quot;&gt;CUSTOMER_FILE&lt;/span&gt;&lt;/div&gt;" style="shape=document;whiteSpace=wrap;html=1;boundedLbl=1;" vertex="1" parent="1">
          <mxGeometry x="760" y="130" width="120" height="80" as="geometry" />
        </mxCell>
        <mxCell id="VNNzNlVyWVjhJS67TrW1-28" style="edgeStyle=orthogonalEdgeStyle;rounded=0;orthogonalLoop=1;jettySize=auto;html=1;" edge="1" parent="1" source="VNNzNlVyWVjhJS67TrW1-25" target="VNNzNlVyWVjhJS67TrW1-27">
          <mxGeometry relative="1" as="geometry" />
        </mxCell>
        <mxCell id="VNNzNlVyWVjhJS67TrW1-25" value="文件空？" style="html=1;whiteSpace=wrap;aspect=fixed;shape=isoRectangle;" vertex="1" parent="1">
          <mxGeometry x="450" y="422.5" width="150" height="90" as="geometry" />
        </mxCell>
        <mxCell id="VNNzNlVyWVjhJS67TrW1-26" style="edgeStyle=orthogonalEdgeStyle;rounded=0;orthogonalLoop=1;jettySize=auto;html=1;" edge="1" parent="1" source="VNNzNlVyWVjhJS67TrW1-4" target="VNNzNlVyWVjhJS67TrW1-25">
          <mxGeometry relative="1" as="geometry" />
        </mxCell>
        <mxCell id="VNNzNlVyWVjhJS67TrW1-27" value="当前没有用户数据" style="rounded=0;whiteSpace=wrap;html=1;" vertex="1" parent="1">
          <mxGeometry x="465" y="320" width="120" height="60" as="geometry" />
        </mxCell>
        <mxCell id="VNNzNlVyWVjhJS67TrW1-29" value="Yes" style="text;html=1;align=center;verticalAlign=middle;whiteSpace=wrap;rounded=0;" vertex="1" parent="1">
          <mxGeometry x="530" y="400" width="60" height="30" as="geometry" />
        </mxCell>
        <mxCell id="VNNzNlVyWVjhJS67TrW1-30" value="No" style="text;html=1;align=center;verticalAlign=middle;whiteSpace=wrap;rounded=0;" vertex="1" parent="1">
          <mxGeometry x="610" y="467.5" width="60" height="30" as="geometry" />
        </mxCell>
        <mxCell id="VNNzNlVyWVjhJS67TrW1-34" style="edgeStyle=orthogonalEdgeStyle;rounded=0;orthogonalLoop=1;jettySize=auto;html=1;" edge="1" parent="1" source="VNNzNlVyWVjhJS67TrW1-31" target="VNNzNlVyWVjhJS67TrW1-33">
          <mxGeometry relative="1" as="geometry" />
        </mxCell>
        <mxCell id="VNNzNlVyWVjhJS67TrW1-31" value="输入要查询的&lt;div&gt;用户号码&lt;/div&gt;" style="rounded=0;whiteSpace=wrap;html=1;" vertex="1" parent="1">
          <mxGeometry x="690" y="437.5" width="120" height="60" as="geometry" />
        </mxCell>
        <mxCell id="VNNzNlVyWVjhJS67TrW1-32" style="edgeStyle=orthogonalEdgeStyle;rounded=0;orthogonalLoop=1;jettySize=auto;html=1;entryX=0;entryY=0.5;entryDx=0;entryDy=0;" edge="1" parent="1" source="VNNzNlVyWVjhJS67TrW1-25" target="VNNzNlVyWVjhJS67TrW1-31">
          <mxGeometry relative="1" as="geometry" />
        </mxCell>
        <mxCell id="VNNzNlVyWVjhJS67TrW1-36" style="edgeStyle=orthogonalEdgeStyle;rounded=0;orthogonalLoop=1;jettySize=auto;html=1;" edge="1" parent="1" source="VNNzNlVyWVjhJS67TrW1-33" target="VNNzNlVyWVjhJS67TrW1-35">
          <mxGeometry relative="1" as="geometry" />
        </mxCell>
        <mxCell id="VNNzNlVyWVjhJS67TrW1-40" style="edgeStyle=orthogonalEdgeStyle;rounded=0;orthogonalLoop=1;jettySize=auto;html=1;" edge="1" parent="1" source="VNNzNlVyWVjhJS67TrW1-33" target="VNNzNlVyWVjhJS67TrW1-39">
          <mxGeometry relative="1" as="geometry" />
        </mxCell>
        <mxCell id="VNNzNlVyWVjhJS67TrW1-33" value="find?" style="html=1;whiteSpace=wrap;aspect=fixed;shape=isoRectangle;" vertex="1" parent="1">
          <mxGeometry x="890" y="423" width="150" height="90" as="geometry" />
        </mxCell>
        <mxCell id="VNNzNlVyWVjhJS67TrW1-35" value="未找到" style="rounded=0;whiteSpace=wrap;html=1;" vertex="1" parent="1">
          <mxGeometry x="905" y="320" width="120" height="60" as="geometry" />
        </mxCell>
        <mxCell id="VNNzNlVyWVjhJS67TrW1-37" value="No" style="text;html=1;align=center;verticalAlign=middle;whiteSpace=wrap;rounded=0;" vertex="1" parent="1">
          <mxGeometry x="950" y="390" width="60" height="30" as="geometry" />
        </mxCell>
        <mxCell id="VNNzNlVyWVjhJS67TrW1-38" value="Yes" style="text;html=1;align=center;verticalAlign=middle;whiteSpace=wrap;rounded=0;" vertex="1" parent="1">
          <mxGeometry x="1060" y="467.5" width="60" height="30" as="geometry" />
        </mxCell>
        <mxCell id="VNNzNlVyWVjhJS67TrW1-39" value="展示该用户的信息" style="rounded=0;whiteSpace=wrap;html=1;" vertex="1" parent="1">
          <mxGeometry x="1150" y="438" width="120" height="60" as="geometry" />
        </mxCell>
        <mxCell id="VNNzNlVyWVjhJS67TrW1-49" style="edgeStyle=orthogonalEdgeStyle;rounded=0;orthogonalLoop=1;jettySize=auto;html=1;" edge="1" parent="1" source="VNNzNlVyWVjhJS67TrW1-50" target="VNNzNlVyWVjhJS67TrW1-52">
          <mxGeometry relative="1" as="geometry" />
        </mxCell>
        <mxCell id="VNNzNlVyWVjhJS67TrW1-50" value="文件空？" style="html=1;whiteSpace=wrap;aspect=fixed;shape=isoRectangle;" vertex="1" parent="1">
          <mxGeometry x="450" y="642.5" width="150" height="90" as="geometry" />
        </mxCell>
        <mxCell id="VNNzNlVyWVjhJS67TrW1-51" style="edgeStyle=orthogonalEdgeStyle;rounded=0;orthogonalLoop=1;jettySize=auto;html=1;" edge="1" parent="1" target="VNNzNlVyWVjhJS67TrW1-50">
          <mxGeometry relative="1" as="geometry">
            <mxPoint x="370" y="688" as="sourcePoint" />
          </mxGeometry>
        </mxCell>
        <mxCell id="VNNzNlVyWVjhJS67TrW1-52" value="当前没有用户数据" style="rounded=0;whiteSpace=wrap;html=1;" vertex="1" parent="1">
          <mxGeometry x="465" y="540" width="120" height="60" as="geometry" />
        </mxCell>
        <mxCell id="VNNzNlVyWVjhJS67TrW1-53" value="Yes" style="text;html=1;align=center;verticalAlign=middle;whiteSpace=wrap;rounded=0;" vertex="1" parent="1">
          <mxGeometry x="530" y="620" width="60" height="30" as="geometry" />
        </mxCell>
        <mxCell id="VNNzNlVyWVjhJS67TrW1-54" value="No" style="text;html=1;align=center;verticalAlign=middle;whiteSpace=wrap;rounded=0;" vertex="1" parent="1">
          <mxGeometry x="610" y="687.5" width="60" height="30" as="geometry" />
        </mxCell>
        <mxCell id="VNNzNlVyWVjhJS67TrW1-55" style="edgeStyle=orthogonalEdgeStyle;rounded=0;orthogonalLoop=1;jettySize=auto;html=1;" edge="1" parent="1" source="VNNzNlVyWVjhJS67TrW1-56" target="VNNzNlVyWVjhJS67TrW1-60">
          <mxGeometry relative="1" as="geometry" />
        </mxCell>
        <mxCell id="VNNzNlVyWVjhJS67TrW1-56" value="输入要删除的&lt;div&gt;用户号码&lt;/div&gt;" style="rounded=0;whiteSpace=wrap;html=1;" vertex="1" parent="1">
          <mxGeometry x="690" y="657.5" width="120" height="60" as="geometry" />
        </mxCell>
        <mxCell id="VNNzNlVyWVjhJS67TrW1-57" style="edgeStyle=orthogonalEdgeStyle;rounded=0;orthogonalLoop=1;jettySize=auto;html=1;entryX=0;entryY=0.5;entryDx=0;entryDy=0;" edge="1" parent="1" source="VNNzNlVyWVjhJS67TrW1-50" target="VNNzNlVyWVjhJS67TrW1-56">
          <mxGeometry relative="1" as="geometry" />
        </mxCell>
        <mxCell id="VNNzNlVyWVjhJS67TrW1-58" style="edgeStyle=orthogonalEdgeStyle;rounded=0;orthogonalLoop=1;jettySize=auto;html=1;" edge="1" parent="1" source="VNNzNlVyWVjhJS67TrW1-60" target="VNNzNlVyWVjhJS67TrW1-61">
          <mxGeometry relative="1" as="geometry" />
        </mxCell>
        <mxCell id="VNNzNlVyWVjhJS67TrW1-59" style="edgeStyle=orthogonalEdgeStyle;rounded=0;orthogonalLoop=1;jettySize=auto;html=1;" edge="1" parent="1" source="VNNzNlVyWVjhJS67TrW1-60" target="VNNzNlVyWVjhJS67TrW1-64">
          <mxGeometry relative="1" as="geometry" />
        </mxCell>
        <mxCell id="VNNzNlVyWVjhJS67TrW1-60" value="find?" style="html=1;whiteSpace=wrap;aspect=fixed;shape=isoRectangle;" vertex="1" parent="1">
          <mxGeometry x="890" y="643" width="150" height="90" as="geometry" />
        </mxCell>
        <mxCell id="VNNzNlVyWVjhJS67TrW1-61" value="未找到" style="rounded=0;whiteSpace=wrap;html=1;" vertex="1" parent="1">
          <mxGeometry x="905" y="540" width="120" height="60" as="geometry" />
        </mxCell>
        <mxCell id="VNNzNlVyWVjhJS67TrW1-62" value="No" style="text;html=1;align=center;verticalAlign=middle;whiteSpace=wrap;rounded=0;" vertex="1" parent="1">
          <mxGeometry x="950" y="610" width="60" height="30" as="geometry" />
        </mxCell>
        <mxCell id="VNNzNlVyWVjhJS67TrW1-63" value="Yes" style="text;html=1;align=center;verticalAlign=middle;whiteSpace=wrap;rounded=0;" vertex="1" parent="1">
          <mxGeometry x="1060" y="687.5" width="60" height="30" as="geometry" />
        </mxCell>
        <mxCell id="VNNzNlVyWVjhJS67TrW1-64" value="已删除" style="rounded=0;whiteSpace=wrap;html=1;" vertex="1" parent="1">
          <mxGeometry x="1150" y="658" width="120" height="60" as="geometry" />
        </mxCell>
        <mxCell id="VNNzNlVyWVjhJS67TrW1-66" value="4，5均为&lt;div&gt;fileOperations.c&lt;/div&gt;&lt;div&gt;的函数&lt;/div&gt;" style="shape=note;whiteSpace=wrap;html=1;backgroundOutline=1;darkOpacity=0.05;" vertex="1" parent="1">
          <mxGeometry x="420" y="870" width="100" height="110" as="geometry" />
        </mxCell>
      </root>
    </mxGraphModel>
  </diagram>
  <diagram id="Pv8ZkaBDls_QEuRacE0f" name="2-2收包裹管理">
    <mxGraphModel dx="2023" dy="648" grid="1" gridSize="10" guides="1" tooltips="1" connect="1" arrows="1" fold="1" page="1" pageScale="1" pageWidth="850" pageHeight="1100" math="0" shadow="0">
      <root>
        <mxCell id="0" />
        <mxCell id="1" parent="0" />
        <mxCell id="z9rO8-So0w2yZwwRtnrA-1" value="收件管理" style="shape=table;startSize=30;container=1;collapsible=0;childLayout=tableLayout;" vertex="1" parent="1">
          <mxGeometry x="-180" y="225" width="90" height="650" as="geometry" />
        </mxCell>
        <mxCell id="z9rO8-So0w2yZwwRtnrA-2" value="" style="shape=tableRow;horizontal=0;startSize=0;swimlaneHead=0;swimlaneBody=0;strokeColor=inherit;top=0;left=0;bottom=0;right=0;collapsible=0;dropTarget=0;fillColor=none;points=[[0,0.5],[1,0.5]];portConstraint=eastwest;" vertex="1" parent="z9rO8-So0w2yZwwRtnrA-1">
          <mxGeometry y="30" width="90" height="124" as="geometry" />
        </mxCell>
        <mxCell id="z9rO8-So0w2yZwwRtnrA-3" value="1添加" style="shape=partialRectangle;html=1;whiteSpace=wrap;connectable=0;strokeColor=inherit;overflow=hidden;fillColor=none;top=0;left=0;bottom=0;right=0;pointerEvents=1;" vertex="1" parent="z9rO8-So0w2yZwwRtnrA-2">
          <mxGeometry width="90" height="124" as="geometry">
            <mxRectangle width="90" height="124" as="alternateBounds" />
          </mxGeometry>
        </mxCell>
        <mxCell id="z9rO8-So0w2yZwwRtnrA-4" value="" style="shape=tableRow;horizontal=0;startSize=0;swimlaneHead=0;swimlaneBody=0;strokeColor=inherit;top=0;left=0;bottom=0;right=0;collapsible=0;dropTarget=0;fillColor=none;points=[[0,0.5],[1,0.5]];portConstraint=eastwest;" vertex="1" parent="z9rO8-So0w2yZwwRtnrA-1">
          <mxGeometry y="154" width="90" height="124" as="geometry" />
        </mxCell>
        <mxCell id="z9rO8-So0w2yZwwRtnrA-5" value="2查询" style="shape=partialRectangle;html=1;whiteSpace=wrap;connectable=0;strokeColor=inherit;overflow=hidden;fillColor=none;top=0;left=0;bottom=0;right=0;pointerEvents=1;" vertex="1" parent="z9rO8-So0w2yZwwRtnrA-4">
          <mxGeometry width="90" height="124" as="geometry">
            <mxRectangle width="90" height="124" as="alternateBounds" />
          </mxGeometry>
        </mxCell>
        <mxCell id="z9rO8-So0w2yZwwRtnrA-6" value="" style="shape=tableRow;horizontal=0;startSize=0;swimlaneHead=0;swimlaneBody=0;strokeColor=inherit;top=0;left=0;bottom=0;right=0;collapsible=0;dropTarget=0;fillColor=none;points=[[0,0.5],[1,0.5]];portConstraint=eastwest;" vertex="1" parent="z9rO8-So0w2yZwwRtnrA-1">
          <mxGeometry y="278" width="90" height="124" as="geometry" />
        </mxCell>
        <mxCell id="z9rO8-So0w2yZwwRtnrA-7" value="3保存" style="shape=partialRectangle;html=1;whiteSpace=wrap;connectable=0;strokeColor=inherit;overflow=hidden;fillColor=none;top=0;left=0;bottom=0;right=0;pointerEvents=1;" vertex="1" parent="z9rO8-So0w2yZwwRtnrA-6">
          <mxGeometry width="90" height="124" as="geometry">
            <mxRectangle width="90" height="124" as="alternateBounds" />
          </mxGeometry>
        </mxCell>
        <mxCell id="z9rO8-So0w2yZwwRtnrA-8" value="" style="shape=tableRow;horizontal=0;startSize=0;swimlaneHead=0;swimlaneBody=0;strokeColor=inherit;top=0;left=0;bottom=0;right=0;collapsible=0;dropTarget=0;fillColor=none;points=[[0,0.5],[1,0.5]];portConstraint=eastwest;" vertex="1" parent="z9rO8-So0w2yZwwRtnrA-1">
          <mxGeometry y="402" width="90" height="124" as="geometry" />
        </mxCell>
        <mxCell id="z9rO8-So0w2yZwwRtnrA-9" value="4删除" style="shape=partialRectangle;html=1;whiteSpace=wrap;connectable=0;strokeColor=inherit;overflow=hidden;fillColor=none;top=0;left=0;bottom=0;right=0;pointerEvents=1;" vertex="1" parent="z9rO8-So0w2yZwwRtnrA-8">
          <mxGeometry width="90" height="124" as="geometry">
            <mxRectangle width="90" height="124" as="alternateBounds" />
          </mxGeometry>
        </mxCell>
        <mxCell id="z9rO8-So0w2yZwwRtnrA-10" value="" style="shape=tableRow;horizontal=0;startSize=0;swimlaneHead=0;swimlaneBody=0;strokeColor=inherit;top=0;left=0;bottom=0;right=0;collapsible=0;dropTarget=0;fillColor=none;points=[[0,0.5],[1,0.5]];portConstraint=eastwest;" vertex="1" parent="z9rO8-So0w2yZwwRtnrA-1">
          <mxGeometry y="526" width="90" height="124" as="geometry" />
        </mxCell>
        <mxCell id="z9rO8-So0w2yZwwRtnrA-11" value="0返回上一级" style="shape=partialRectangle;html=1;whiteSpace=wrap;connectable=0;strokeColor=inherit;overflow=hidden;fillColor=none;top=0;left=0;bottom=0;right=0;pointerEvents=1;" vertex="1" parent="z9rO8-So0w2yZwwRtnrA-10">
          <mxGeometry width="90" height="124" as="geometry">
            <mxRectangle width="90" height="124" as="alternateBounds" />
          </mxGeometry>
        </mxCell>
        <mxCell id="AwLmxASH2-SKEt9uQ5i7-4" style="edgeStyle=orthogonalEdgeStyle;rounded=0;orthogonalLoop=1;jettySize=auto;html=1;" edge="1" parent="1" source="AwLmxASH2-SKEt9uQ5i7-1" target="AwLmxASH2-SKEt9uQ5i7-3">
          <mxGeometry relative="1" as="geometry" />
        </mxCell>
        <mxCell id="AwLmxASH2-SKEt9uQ5i7-1" value="输入" style="rounded=0;whiteSpace=wrap;html=1;" vertex="1" parent="1">
          <mxGeometry y="287" width="120" height="60" as="geometry" />
        </mxCell>
        <mxCell id="AwLmxASH2-SKEt9uQ5i7-2" style="edgeStyle=orthogonalEdgeStyle;rounded=0;orthogonalLoop=1;jettySize=auto;html=1;" edge="1" parent="1" source="z9rO8-So0w2yZwwRtnrA-2" target="AwLmxASH2-SKEt9uQ5i7-1">
          <mxGeometry relative="1" as="geometry" />
        </mxCell>
        <mxCell id="AwLmxASH2-SKEt9uQ5i7-11" style="edgeStyle=orthogonalEdgeStyle;rounded=0;orthogonalLoop=1;jettySize=auto;html=1;" edge="1" parent="1" source="AwLmxASH2-SKEt9uQ5i7-3" target="AwLmxASH2-SKEt9uQ5i7-10">
          <mxGeometry relative="1" as="geometry" />
        </mxCell>
        <mxCell id="AwLmxASH2-SKEt9uQ5i7-3" value="再修改？" style="html=1;whiteSpace=wrap;aspect=fixed;shape=isoRectangle;" vertex="1" parent="1">
          <mxGeometry x="190" y="272" width="150" height="90" as="geometry" />
        </mxCell>
        <mxCell id="AwLmxASH2-SKEt9uQ5i7-7" value="" style="curved=1;endArrow=classic;html=1;rounded=0;entryX=0.579;entryY=0.017;entryDx=0;entryDy=0;exitX=0.47;exitY=0.061;exitDx=0;exitDy=0;exitPerimeter=0;entryPerimeter=0;" edge="1" parent="1" source="AwLmxASH2-SKEt9uQ5i7-3" target="AwLmxASH2-SKEt9uQ5i7-1">
          <mxGeometry width="50" height="50" relative="1" as="geometry">
            <mxPoint x="265" y="251.28932188134524" as="sourcePoint" />
            <mxPoint x="265" y="201.28932188134524" as="targetPoint" />
            <Array as="points">
              <mxPoint x="180" y="250" />
            </Array>
          </mxGeometry>
        </mxCell>
        <mxCell id="AwLmxASH2-SKEt9uQ5i7-8" value="Yes" style="text;html=1;align=center;verticalAlign=middle;whiteSpace=wrap;rounded=0;" vertex="1" parent="1">
          <mxGeometry x="130" y="242" width="60" height="30" as="geometry" />
        </mxCell>
        <mxCell id="AwLmxASH2-SKEt9uQ5i7-9" value="No" style="text;html=1;align=center;verticalAlign=middle;whiteSpace=wrap;rounded=0;" vertex="1" parent="1">
          <mxGeometry x="320" y="287" width="60" height="30" as="geometry" />
        </mxCell>
        <mxCell id="AwLmxASH2-SKEt9uQ5i7-13" style="edgeStyle=orthogonalEdgeStyle;rounded=0;orthogonalLoop=1;jettySize=auto;html=1;" edge="1" parent="1" source="AwLmxASH2-SKEt9uQ5i7-10" target="AwLmxASH2-SKEt9uQ5i7-12">
          <mxGeometry relative="1" as="geometry" />
        </mxCell>
        <mxCell id="AwLmxASH2-SKEt9uQ5i7-10" value="插入链表&lt;div&gt;&lt;br&gt;&lt;/div&gt;" style="rounded=0;whiteSpace=wrap;html=1;" vertex="1" parent="1">
          <mxGeometry x="380" y="287" width="120" height="60" as="geometry" />
        </mxCell>
        <mxCell id="AwLmxASH2-SKEt9uQ5i7-15" style="edgeStyle=orthogonalEdgeStyle;rounded=0;orthogonalLoop=1;jettySize=auto;html=1;" edge="1" parent="1" source="AwLmxASH2-SKEt9uQ5i7-12" target="AwLmxASH2-SKEt9uQ5i7-14">
          <mxGeometry relative="1" as="geometry" />
        </mxCell>
        <mxCell id="AwLmxASH2-SKEt9uQ5i7-12" value="生成序列号" style="rounded=0;whiteSpace=wrap;html=1;" vertex="1" parent="1">
          <mxGeometry x="530" y="287" width="120" height="60" as="geometry" />
        </mxCell>
        <mxCell id="AwLmxASH2-SKEt9uQ5i7-14" value="保存到文件" style="rounded=0;whiteSpace=wrap;html=1;" vertex="1" parent="1">
          <mxGeometry x="680" y="287" width="120" height="60" as="geometry" />
        </mxCell>
        <mxCell id="AwLmxASH2-SKEt9uQ5i7-16" value="&lt;div style=&quot;color: rgb(171, 178, 191); background-color: rgb(35, 39, 46); font-family: Consolas, &amp;quot;Courier New&amp;quot;, monospace; font-size: 14px; line-height: 19px; white-space: pre;&quot;&gt;&lt;span style=&quot;color: #98c379;&quot;&gt;received_packages.txt&lt;/span&gt;&lt;/div&gt;" style="shape=document;whiteSpace=wrap;html=1;boundedLbl=1;" vertex="1" parent="1">
          <mxGeometry x="810" y="277" width="200" height="80" as="geometry" />
        </mxCell>
        <mxCell id="AwLmxASH2-SKEt9uQ5i7-20" style="edgeStyle=orthogonalEdgeStyle;rounded=0;orthogonalLoop=1;jettySize=auto;html=1;" edge="1" parent="1" source="AwLmxASH2-SKEt9uQ5i7-17">
          <mxGeometry relative="1" as="geometry">
            <mxPoint x="190" y="441" as="targetPoint" />
          </mxGeometry>
        </mxCell>
        <mxCell id="AwLmxASH2-SKEt9uQ5i7-17" value="输入序列号" style="rounded=0;whiteSpace=wrap;html=1;" vertex="1" parent="1">
          <mxGeometry y="411" width="120" height="60" as="geometry" />
        </mxCell>
        <mxCell id="AwLmxASH2-SKEt9uQ5i7-18" style="edgeStyle=orthogonalEdgeStyle;rounded=0;orthogonalLoop=1;jettySize=auto;html=1;" edge="1" parent="1" source="z9rO8-So0w2yZwwRtnrA-4" target="AwLmxASH2-SKEt9uQ5i7-17">
          <mxGeometry relative="1" as="geometry" />
        </mxCell>
        <mxCell id="AwLmxASH2-SKEt9uQ5i7-23" style="edgeStyle=orthogonalEdgeStyle;rounded=0;orthogonalLoop=1;jettySize=auto;html=1;" edge="1" parent="1" source="AwLmxASH2-SKEt9uQ5i7-21" target="AwLmxASH2-SKEt9uQ5i7-22">
          <mxGeometry relative="1" as="geometry" />
        </mxCell>
        <mxCell id="AwLmxASH2-SKEt9uQ5i7-21" value="历遍链表" style="rounded=0;whiteSpace=wrap;html=1;" vertex="1" parent="1">
          <mxGeometry x="190" y="411" width="120" height="60" as="geometry" />
        </mxCell>
        <mxCell id="AwLmxASH2-SKEt9uQ5i7-29" style="edgeStyle=orthogonalEdgeStyle;rounded=0;orthogonalLoop=1;jettySize=auto;html=1;" edge="1" parent="1" source="AwLmxASH2-SKEt9uQ5i7-22" target="AwLmxASH2-SKEt9uQ5i7-25">
          <mxGeometry relative="1" as="geometry" />
        </mxCell>
        <mxCell id="AwLmxASH2-SKEt9uQ5i7-30" style="edgeStyle=orthogonalEdgeStyle;rounded=0;orthogonalLoop=1;jettySize=auto;html=1;entryX=0;entryY=0.5;entryDx=0;entryDy=0;" edge="1" parent="1" source="AwLmxASH2-SKEt9uQ5i7-22" target="AwLmxASH2-SKEt9uQ5i7-27">
          <mxGeometry relative="1" as="geometry" />
        </mxCell>
        <mxCell id="AwLmxASH2-SKEt9uQ5i7-22" value="find？" style="html=1;whiteSpace=wrap;aspect=fixed;shape=isoRectangle;" vertex="1" parent="1">
          <mxGeometry x="365" y="396" width="150" height="90" as="geometry" />
        </mxCell>
        <mxCell id="AwLmxASH2-SKEt9uQ5i7-24" value="" style="shape=table;startSize=0;container=1;collapsible=0;childLayout=tableLayout;" vertex="1" parent="1">
          <mxGeometry x="570" y="401" width="60" height="80" as="geometry" />
        </mxCell>
        <mxCell id="AwLmxASH2-SKEt9uQ5i7-25" value="" style="shape=tableRow;horizontal=0;startSize=0;swimlaneHead=0;swimlaneBody=0;strokeColor=inherit;top=0;left=0;bottom=0;right=0;collapsible=0;dropTarget=0;fillColor=none;points=[[0,0.5],[1,0.5]];portConstraint=eastwest;" vertex="1" parent="AwLmxASH2-SKEt9uQ5i7-24">
          <mxGeometry width="60" height="40" as="geometry" />
        </mxCell>
        <mxCell id="AwLmxASH2-SKEt9uQ5i7-26" value="未找到" style="shape=partialRectangle;html=1;whiteSpace=wrap;connectable=0;strokeColor=inherit;overflow=hidden;fillColor=none;top=0;left=0;bottom=0;right=0;pointerEvents=1;" vertex="1" parent="AwLmxASH2-SKEt9uQ5i7-25">
          <mxGeometry width="60" height="40" as="geometry">
            <mxRectangle width="60" height="40" as="alternateBounds" />
          </mxGeometry>
        </mxCell>
        <mxCell id="AwLmxASH2-SKEt9uQ5i7-27" value="" style="shape=tableRow;horizontal=0;startSize=0;swimlaneHead=0;swimlaneBody=0;strokeColor=inherit;top=0;left=0;bottom=0;right=0;collapsible=0;dropTarget=0;fillColor=none;points=[[0,0.5],[1,0.5]];portConstraint=eastwest;" vertex="1" parent="AwLmxASH2-SKEt9uQ5i7-24">
          <mxGeometry y="40" width="60" height="40" as="geometry" />
        </mxCell>
        <mxCell id="AwLmxASH2-SKEt9uQ5i7-28" value="显示信息" style="shape=partialRectangle;html=1;whiteSpace=wrap;connectable=0;strokeColor=inherit;overflow=hidden;fillColor=none;top=0;left=0;bottom=0;right=0;pointerEvents=1;" vertex="1" parent="AwLmxASH2-SKEt9uQ5i7-27">
          <mxGeometry width="60" height="40" as="geometry">
            <mxRectangle width="60" height="40" as="alternateBounds" />
          </mxGeometry>
        </mxCell>
        <mxCell id="AwLmxASH2-SKEt9uQ5i7-31" value="Yes" style="text;html=1;align=center;verticalAlign=middle;whiteSpace=wrap;rounded=0;" vertex="1" parent="1">
          <mxGeometry x="500" y="451" width="60" height="30" as="geometry" />
        </mxCell>
        <mxCell id="AwLmxASH2-SKEt9uQ5i7-32" value="No" style="text;html=1;align=center;verticalAlign=middle;whiteSpace=wrap;rounded=0;" vertex="1" parent="1">
          <mxGeometry x="500" y="406" width="60" height="30" as="geometry" />
        </mxCell>
        <mxCell id="AwLmxASH2-SKEt9uQ5i7-33" style="edgeStyle=orthogonalEdgeStyle;rounded=0;orthogonalLoop=1;jettySize=auto;html=1;" edge="1" parent="1" source="AwLmxASH2-SKEt9uQ5i7-34">
          <mxGeometry relative="1" as="geometry">
            <mxPoint x="190" y="685" as="targetPoint" />
          </mxGeometry>
        </mxCell>
        <mxCell id="AwLmxASH2-SKEt9uQ5i7-34" value="输入序列号" style="rounded=0;whiteSpace=wrap;html=1;" vertex="1" parent="1">
          <mxGeometry y="655" width="120" height="60" as="geometry" />
        </mxCell>
        <mxCell id="AwLmxASH2-SKEt9uQ5i7-35" style="edgeStyle=orthogonalEdgeStyle;rounded=0;orthogonalLoop=1;jettySize=auto;html=1;" edge="1" parent="1" source="AwLmxASH2-SKEt9uQ5i7-36" target="AwLmxASH2-SKEt9uQ5i7-39">
          <mxGeometry relative="1" as="geometry" />
        </mxCell>
        <mxCell id="AwLmxASH2-SKEt9uQ5i7-36" value="历遍链表" style="rounded=0;whiteSpace=wrap;html=1;" vertex="1" parent="1">
          <mxGeometry x="190" y="655" width="120" height="60" as="geometry" />
        </mxCell>
        <mxCell id="AwLmxASH2-SKEt9uQ5i7-37" style="edgeStyle=orthogonalEdgeStyle;rounded=0;orthogonalLoop=1;jettySize=auto;html=1;" edge="1" parent="1" source="AwLmxASH2-SKEt9uQ5i7-39" target="AwLmxASH2-SKEt9uQ5i7-41">
          <mxGeometry relative="1" as="geometry" />
        </mxCell>
        <mxCell id="AwLmxASH2-SKEt9uQ5i7-38" style="edgeStyle=orthogonalEdgeStyle;rounded=0;orthogonalLoop=1;jettySize=auto;html=1;entryX=0;entryY=0.5;entryDx=0;entryDy=0;" edge="1" parent="1" source="AwLmxASH2-SKEt9uQ5i7-39" target="AwLmxASH2-SKEt9uQ5i7-43">
          <mxGeometry relative="1" as="geometry" />
        </mxCell>
        <mxCell id="AwLmxASH2-SKEt9uQ5i7-39" value="find？" style="html=1;whiteSpace=wrap;aspect=fixed;shape=isoRectangle;" vertex="1" parent="1">
          <mxGeometry x="365" y="640" width="150" height="90" as="geometry" />
        </mxCell>
        <mxCell id="AwLmxASH2-SKEt9uQ5i7-40" value="" style="shape=table;startSize=0;container=1;collapsible=0;childLayout=tableLayout;" vertex="1" parent="1">
          <mxGeometry x="570" y="645" width="60" height="80" as="geometry" />
        </mxCell>
        <mxCell id="AwLmxASH2-SKEt9uQ5i7-41" value="" style="shape=tableRow;horizontal=0;startSize=0;swimlaneHead=0;swimlaneBody=0;strokeColor=inherit;top=0;left=0;bottom=0;right=0;collapsible=0;dropTarget=0;fillColor=none;points=[[0,0.5],[1,0.5]];portConstraint=eastwest;" vertex="1" parent="AwLmxASH2-SKEt9uQ5i7-40">
          <mxGeometry width="60" height="40" as="geometry" />
        </mxCell>
        <mxCell id="AwLmxASH2-SKEt9uQ5i7-42" value="未找到" style="shape=partialRectangle;html=1;whiteSpace=wrap;connectable=0;strokeColor=inherit;overflow=hidden;fillColor=none;top=0;left=0;bottom=0;right=0;pointerEvents=1;" vertex="1" parent="AwLmxASH2-SKEt9uQ5i7-41">
          <mxGeometry width="60" height="40" as="geometry">
            <mxRectangle width="60" height="40" as="alternateBounds" />
          </mxGeometry>
        </mxCell>
        <mxCell id="AwLmxASH2-SKEt9uQ5i7-43" value="" style="shape=tableRow;horizontal=0;startSize=0;swimlaneHead=0;swimlaneBody=0;strokeColor=inherit;top=0;left=0;bottom=0;right=0;collapsible=0;dropTarget=0;fillColor=none;points=[[0,0.5],[1,0.5]];portConstraint=eastwest;" vertex="1" parent="AwLmxASH2-SKEt9uQ5i7-40">
          <mxGeometry y="40" width="60" height="40" as="geometry" />
        </mxCell>
        <mxCell id="AwLmxASH2-SKEt9uQ5i7-44" value="显示信息" style="shape=partialRectangle;html=1;whiteSpace=wrap;connectable=0;strokeColor=inherit;overflow=hidden;fillColor=none;top=0;left=0;bottom=0;right=0;pointerEvents=1;" vertex="1" parent="AwLmxASH2-SKEt9uQ5i7-43">
          <mxGeometry width="60" height="40" as="geometry">
            <mxRectangle width="60" height="40" as="alternateBounds" />
          </mxGeometry>
        </mxCell>
        <mxCell id="AwLmxASH2-SKEt9uQ5i7-45" value="Yes" style="text;html=1;align=center;verticalAlign=middle;whiteSpace=wrap;rounded=0;" vertex="1" parent="1">
          <mxGeometry x="500" y="695" width="60" height="30" as="geometry" />
        </mxCell>
        <mxCell id="AwLmxASH2-SKEt9uQ5i7-46" value="No" style="text;html=1;align=center;verticalAlign=middle;whiteSpace=wrap;rounded=0;" vertex="1" parent="1">
          <mxGeometry x="500" y="650" width="60" height="30" as="geometry" />
        </mxCell>
        <mxCell id="AwLmxASH2-SKEt9uQ5i7-47" style="edgeStyle=orthogonalEdgeStyle;rounded=0;orthogonalLoop=1;jettySize=auto;html=1;" edge="1" parent="1" source="z9rO8-So0w2yZwwRtnrA-8" target="AwLmxASH2-SKEt9uQ5i7-34">
          <mxGeometry relative="1" as="geometry" />
        </mxCell>
        <mxCell id="AwLmxASH2-SKEt9uQ5i7-55" style="edgeStyle=orthogonalEdgeStyle;rounded=0;orthogonalLoop=1;jettySize=auto;html=1;" edge="1" parent="1" source="AwLmxASH2-SKEt9uQ5i7-48" target="AwLmxASH2-SKEt9uQ5i7-51">
          <mxGeometry relative="1" as="geometry" />
        </mxCell>
        <mxCell id="AwLmxASH2-SKEt9uQ5i7-56" style="edgeStyle=orthogonalEdgeStyle;rounded=0;orthogonalLoop=1;jettySize=auto;html=1;entryX=0;entryY=0.5;entryDx=0;entryDy=0;" edge="1" parent="1" source="AwLmxASH2-SKEt9uQ5i7-48" target="AwLmxASH2-SKEt9uQ5i7-53">
          <mxGeometry relative="1" as="geometry" />
        </mxCell>
        <mxCell id="AwLmxASH2-SKEt9uQ5i7-48" value="再度确认&lt;div&gt;是否删除&lt;/div&gt;" style="html=1;whiteSpace=wrap;aspect=fixed;shape=isoRectangle;" vertex="1" parent="1">
          <mxGeometry x="650" y="660" width="150" height="90" as="geometry" />
        </mxCell>
        <mxCell id="AwLmxASH2-SKEt9uQ5i7-49" style="edgeStyle=orthogonalEdgeStyle;rounded=0;orthogonalLoop=1;jettySize=auto;html=1;entryX=0.043;entryY=0.517;entryDx=0;entryDy=0;entryPerimeter=0;" edge="1" parent="1" source="AwLmxASH2-SKEt9uQ5i7-43" target="AwLmxASH2-SKEt9uQ5i7-48">
          <mxGeometry relative="1" as="geometry" />
        </mxCell>
        <mxCell id="AwLmxASH2-SKEt9uQ5i7-50" value="" style="shape=table;startSize=0;container=1;collapsible=0;childLayout=tableLayout;" vertex="1" parent="1">
          <mxGeometry x="870" y="665" width="60" height="80" as="geometry" />
        </mxCell>
        <mxCell id="AwLmxASH2-SKEt9uQ5i7-51" value="" style="shape=tableRow;horizontal=0;startSize=0;swimlaneHead=0;swimlaneBody=0;strokeColor=inherit;top=0;left=0;bottom=0;right=0;collapsible=0;dropTarget=0;fillColor=none;points=[[0,0.5],[1,0.5]];portConstraint=eastwest;" vertex="1" parent="AwLmxASH2-SKEt9uQ5i7-50">
          <mxGeometry width="60" height="40" as="geometry" />
        </mxCell>
        <mxCell id="AwLmxASH2-SKEt9uQ5i7-52" value="已删除" style="shape=partialRectangle;html=1;whiteSpace=wrap;connectable=0;strokeColor=inherit;overflow=hidden;fillColor=none;top=0;left=0;bottom=0;right=0;pointerEvents=1;" vertex="1" parent="AwLmxASH2-SKEt9uQ5i7-51">
          <mxGeometry width="60" height="40" as="geometry">
            <mxRectangle width="60" height="40" as="alternateBounds" />
          </mxGeometry>
        </mxCell>
        <mxCell id="AwLmxASH2-SKEt9uQ5i7-53" value="" style="shape=tableRow;horizontal=0;startSize=0;swimlaneHead=0;swimlaneBody=0;strokeColor=inherit;top=0;left=0;bottom=0;right=0;collapsible=0;dropTarget=0;fillColor=none;points=[[0,0.5],[1,0.5]];portConstraint=eastwest;" vertex="1" parent="AwLmxASH2-SKEt9uQ5i7-50">
          <mxGeometry y="40" width="60" height="40" as="geometry" />
        </mxCell>
        <mxCell id="AwLmxASH2-SKEt9uQ5i7-54" value="操作取消" style="shape=partialRectangle;html=1;whiteSpace=wrap;connectable=0;strokeColor=inherit;overflow=hidden;fillColor=none;top=0;left=0;bottom=0;right=0;pointerEvents=1;" vertex="1" parent="AwLmxASH2-SKEt9uQ5i7-53">
          <mxGeometry width="60" height="40" as="geometry">
            <mxRectangle width="60" height="40" as="alternateBounds" />
          </mxGeometry>
        </mxCell>
        <mxCell id="AwLmxASH2-SKEt9uQ5i7-57" value="Yes" style="text;html=1;align=center;verticalAlign=middle;whiteSpace=wrap;rounded=0;" vertex="1" parent="1">
          <mxGeometry x="780" y="670" width="60" height="30" as="geometry" />
        </mxCell>
        <mxCell id="AwLmxASH2-SKEt9uQ5i7-58" value="No" style="text;html=1;align=center;verticalAlign=middle;whiteSpace=wrap;rounded=0;" vertex="1" parent="1">
          <mxGeometry x="780" y="715" width="60" height="30" as="geometry" />
        </mxCell>
      </root>
    </mxGraphModel>
  </diagram>
  <diagram id="Ah654QpmRfquwv1Q4FCy" name="2-3发包裹管理">
    <mxGraphModel dx="1805" dy="997" grid="1" gridSize="10" guides="1" tooltips="1" connect="1" arrows="1" fold="1" page="1" pageScale="1" pageWidth="850" pageHeight="1100" math="0" shadow="0">
      <root>
        <mxCell id="0" />
        <mxCell id="1" parent="0" />
        <mxCell id="5hkbQn47xS9e945GXyhX-1" value="发件" style="shape=table;startSize=30;container=1;collapsible=0;childLayout=tableLayout;" vertex="1" parent="1">
          <mxGeometry x="10" y="210" width="160" height="510" as="geometry" />
        </mxCell>
        <mxCell id="5hkbQn47xS9e945GXyhX-2" value="" style="shape=tableRow;horizontal=0;startSize=0;swimlaneHead=0;swimlaneBody=0;strokeColor=inherit;top=0;left=0;bottom=0;right=0;collapsible=0;dropTarget=0;fillColor=none;points=[[0,0.5],[1,0.5]];portConstraint=eastwest;" vertex="1" parent="5hkbQn47xS9e945GXyhX-1">
          <mxGeometry y="30" width="160" height="120" as="geometry" />
        </mxCell>
        <mxCell id="5hkbQn47xS9e945GXyhX-3" value="1添加" style="shape=partialRectangle;html=1;whiteSpace=wrap;connectable=0;strokeColor=inherit;overflow=hidden;fillColor=none;top=0;left=0;bottom=0;right=0;pointerEvents=1;" vertex="1" parent="5hkbQn47xS9e945GXyhX-2">
          <mxGeometry width="160" height="120" as="geometry">
            <mxRectangle width="160" height="120" as="alternateBounds" />
          </mxGeometry>
        </mxCell>
        <mxCell id="5hkbQn47xS9e945GXyhX-4" value="" style="shape=tableRow;horizontal=0;startSize=0;swimlaneHead=0;swimlaneBody=0;strokeColor=inherit;top=0;left=0;bottom=0;right=0;collapsible=0;dropTarget=0;fillColor=none;points=[[0,0.5],[1,0.5]];portConstraint=eastwest;" vertex="1" parent="5hkbQn47xS9e945GXyhX-1">
          <mxGeometry y="150" width="160" height="120" as="geometry" />
        </mxCell>
        <mxCell id="5hkbQn47xS9e945GXyhX-5" value="2查询" style="shape=partialRectangle;html=1;whiteSpace=wrap;connectable=0;strokeColor=inherit;overflow=hidden;fillColor=none;top=0;left=0;bottom=0;right=0;pointerEvents=1;" vertex="1" parent="5hkbQn47xS9e945GXyhX-4">
          <mxGeometry width="160" height="120" as="geometry">
            <mxRectangle width="160" height="120" as="alternateBounds" />
          </mxGeometry>
        </mxCell>
        <mxCell id="5hkbQn47xS9e945GXyhX-6" value="" style="shape=tableRow;horizontal=0;startSize=0;swimlaneHead=0;swimlaneBody=0;strokeColor=inherit;top=0;left=0;bottom=0;right=0;collapsible=0;dropTarget=0;fillColor=none;points=[[0,0.5],[1,0.5]];portConstraint=eastwest;" vertex="1" parent="5hkbQn47xS9e945GXyhX-1">
          <mxGeometry y="270" width="160" height="120" as="geometry" />
        </mxCell>
        <mxCell id="5hkbQn47xS9e945GXyhX-7" value="3保存" style="shape=partialRectangle;html=1;whiteSpace=wrap;connectable=0;strokeColor=inherit;overflow=hidden;fillColor=none;top=0;left=0;bottom=0;right=0;pointerEvents=1;" vertex="1" parent="5hkbQn47xS9e945GXyhX-6">
          <mxGeometry width="160" height="120" as="geometry">
            <mxRectangle width="160" height="120" as="alternateBounds" />
          </mxGeometry>
        </mxCell>
        <mxCell id="5hkbQn47xS9e945GXyhX-8" value="" style="shape=tableRow;horizontal=0;startSize=0;swimlaneHead=0;swimlaneBody=0;strokeColor=inherit;top=0;left=0;bottom=0;right=0;collapsible=0;dropTarget=0;fillColor=none;points=[[0,0.5],[1,0.5]];portConstraint=eastwest;" vertex="1" parent="5hkbQn47xS9e945GXyhX-1">
          <mxGeometry y="390" width="160" height="120" as="geometry" />
        </mxCell>
        <mxCell id="5hkbQn47xS9e945GXyhX-9" value="0返回上一级" style="shape=partialRectangle;html=1;whiteSpace=wrap;connectable=0;strokeColor=inherit;overflow=hidden;fillColor=none;top=0;left=0;bottom=0;right=0;pointerEvents=1;" vertex="1" parent="5hkbQn47xS9e945GXyhX-8">
          <mxGeometry width="160" height="120" as="geometry">
            <mxRectangle width="160" height="120" as="alternateBounds" />
          </mxGeometry>
        </mxCell>
        <mxCell id="R1CdE3AS88JiQMuyki3D-1" style="edgeStyle=orthogonalEdgeStyle;rounded=0;orthogonalLoop=1;jettySize=auto;html=1;" edge="1" parent="1" source="R1CdE3AS88JiQMuyki3D-2" target="R1CdE3AS88JiQMuyki3D-5">
          <mxGeometry relative="1" as="geometry" />
        </mxCell>
        <mxCell id="R1CdE3AS88JiQMuyki3D-2" value="输入" style="rounded=0;whiteSpace=wrap;html=1;" vertex="1" parent="1">
          <mxGeometry x="260" y="265" width="120" height="60" as="geometry" />
        </mxCell>
        <mxCell id="R1CdE3AS88JiQMuyki3D-3" style="edgeStyle=orthogonalEdgeStyle;rounded=0;orthogonalLoop=1;jettySize=auto;html=1;" edge="1" parent="1" target="R1CdE3AS88JiQMuyki3D-2">
          <mxGeometry relative="1" as="geometry">
            <mxPoint x="170" y="295" as="sourcePoint" />
          </mxGeometry>
        </mxCell>
        <mxCell id="R1CdE3AS88JiQMuyki3D-4" style="edgeStyle=orthogonalEdgeStyle;rounded=0;orthogonalLoop=1;jettySize=auto;html=1;" edge="1" parent="1" source="R1CdE3AS88JiQMuyki3D-5" target="R1CdE3AS88JiQMuyki3D-10">
          <mxGeometry relative="1" as="geometry" />
        </mxCell>
        <mxCell id="R1CdE3AS88JiQMuyki3D-5" value="再修改？" style="html=1;whiteSpace=wrap;aspect=fixed;shape=isoRectangle;" vertex="1" parent="1">
          <mxGeometry x="450" y="250" width="150" height="90" as="geometry" />
        </mxCell>
        <mxCell id="R1CdE3AS88JiQMuyki3D-6" value="" style="curved=1;endArrow=classic;html=1;rounded=0;entryX=0.579;entryY=0.017;entryDx=0;entryDy=0;exitX=0.47;exitY=0.061;exitDx=0;exitDy=0;exitPerimeter=0;entryPerimeter=0;" edge="1" parent="1" source="R1CdE3AS88JiQMuyki3D-5" target="R1CdE3AS88JiQMuyki3D-2">
          <mxGeometry width="50" height="50" relative="1" as="geometry">
            <mxPoint x="525" y="229.28932188134524" as="sourcePoint" />
            <mxPoint x="525" y="179.28932188134524" as="targetPoint" />
            <Array as="points">
              <mxPoint x="440" y="228" />
            </Array>
          </mxGeometry>
        </mxCell>
        <mxCell id="R1CdE3AS88JiQMuyki3D-7" value="Yes" style="text;html=1;align=center;verticalAlign=middle;whiteSpace=wrap;rounded=0;" vertex="1" parent="1">
          <mxGeometry x="390" y="220" width="60" height="30" as="geometry" />
        </mxCell>
        <mxCell id="R1CdE3AS88JiQMuyki3D-8" value="No" style="text;html=1;align=center;verticalAlign=middle;whiteSpace=wrap;rounded=0;" vertex="1" parent="1">
          <mxGeometry x="580" y="265" width="60" height="30" as="geometry" />
        </mxCell>
        <mxCell id="R1CdE3AS88JiQMuyki3D-30" style="edgeStyle=orthogonalEdgeStyle;rounded=0;orthogonalLoop=1;jettySize=auto;html=1;" edge="1" parent="1" source="R1CdE3AS88JiQMuyki3D-10" target="R1CdE3AS88JiQMuyki3D-13">
          <mxGeometry relative="1" as="geometry" />
        </mxCell>
        <mxCell id="R1CdE3AS88JiQMuyki3D-10" value="插入链表" style="rounded=0;whiteSpace=wrap;html=1;" vertex="1" parent="1">
          <mxGeometry x="640" y="265" width="120" height="60" as="geometry" />
        </mxCell>
        <mxCell id="R1CdE3AS88JiQMuyki3D-13" value="保存到文件" style="rounded=0;whiteSpace=wrap;html=1;" vertex="1" parent="1">
          <mxGeometry x="790" y="265" width="120" height="60" as="geometry" />
        </mxCell>
        <mxCell id="R1CdE3AS88JiQMuyki3D-14" value="&lt;div style=&quot;color: rgb(171, 178, 191); background-color: rgb(35, 39, 46); font-family: Consolas, &amp;quot;Courier New&amp;quot;, monospace; font-size: 14px; line-height: 19px; white-space: pre;&quot;&gt;&lt;div style=&quot;line-height: 19px;&quot;&gt;&lt;span style=&quot;color: #98c379;&quot;&gt;send_packages.txt&lt;/span&gt;&lt;/div&gt;&lt;/div&gt;" style="shape=document;whiteSpace=wrap;html=1;boundedLbl=1;" vertex="1" parent="1">
          <mxGeometry x="920" y="260" width="200" height="80" as="geometry" />
        </mxCell>
        <mxCell id="R1CdE3AS88JiQMuyki3D-15" style="edgeStyle=orthogonalEdgeStyle;rounded=0;orthogonalLoop=1;jettySize=auto;html=1;" edge="1" parent="1">
          <mxGeometry relative="1" as="geometry">
            <mxPoint x="240" y="419" as="targetPoint" />
            <mxPoint x="170" y="419" as="sourcePoint" />
          </mxGeometry>
        </mxCell>
        <mxCell id="R1CdE3AS88JiQMuyki3D-18" style="edgeStyle=orthogonalEdgeStyle;rounded=0;orthogonalLoop=1;jettySize=auto;html=1;" edge="1" parent="1" source="R1CdE3AS88JiQMuyki3D-19" target="R1CdE3AS88JiQMuyki3D-22">
          <mxGeometry relative="1" as="geometry" />
        </mxCell>
        <mxCell id="R1CdE3AS88JiQMuyki3D-19" value="历遍链表" style="rounded=0;whiteSpace=wrap;html=1;" vertex="1" parent="1">
          <mxGeometry x="240" y="389" width="120" height="60" as="geometry" />
        </mxCell>
        <mxCell id="R1CdE3AS88JiQMuyki3D-20" style="edgeStyle=orthogonalEdgeStyle;rounded=0;orthogonalLoop=1;jettySize=auto;html=1;" edge="1" parent="1" source="R1CdE3AS88JiQMuyki3D-22" target="R1CdE3AS88JiQMuyki3D-24">
          <mxGeometry relative="1" as="geometry" />
        </mxCell>
        <mxCell id="R1CdE3AS88JiQMuyki3D-21" style="edgeStyle=orthogonalEdgeStyle;rounded=0;orthogonalLoop=1;jettySize=auto;html=1;entryX=0;entryY=0.5;entryDx=0;entryDy=0;" edge="1" parent="1" source="R1CdE3AS88JiQMuyki3D-22" target="R1CdE3AS88JiQMuyki3D-26">
          <mxGeometry relative="1" as="geometry" />
        </mxCell>
        <mxCell id="R1CdE3AS88JiQMuyki3D-22" value="find？" style="html=1;whiteSpace=wrap;aspect=fixed;shape=isoRectangle;" vertex="1" parent="1">
          <mxGeometry x="415" y="374" width="150" height="90" as="geometry" />
        </mxCell>
        <mxCell id="R1CdE3AS88JiQMuyki3D-23" value="" style="shape=table;startSize=0;container=1;collapsible=0;childLayout=tableLayout;" vertex="1" parent="1">
          <mxGeometry x="620" y="379" width="60" height="80" as="geometry" />
        </mxCell>
        <mxCell id="R1CdE3AS88JiQMuyki3D-24" value="" style="shape=tableRow;horizontal=0;startSize=0;swimlaneHead=0;swimlaneBody=0;strokeColor=inherit;top=0;left=0;bottom=0;right=0;collapsible=0;dropTarget=0;fillColor=none;points=[[0,0.5],[1,0.5]];portConstraint=eastwest;" vertex="1" parent="R1CdE3AS88JiQMuyki3D-23">
          <mxGeometry width="60" height="40" as="geometry" />
        </mxCell>
        <mxCell id="R1CdE3AS88JiQMuyki3D-25" value="未找到" style="shape=partialRectangle;html=1;whiteSpace=wrap;connectable=0;strokeColor=inherit;overflow=hidden;fillColor=none;top=0;left=0;bottom=0;right=0;pointerEvents=1;" vertex="1" parent="R1CdE3AS88JiQMuyki3D-24">
          <mxGeometry width="60" height="40" as="geometry">
            <mxRectangle width="60" height="40" as="alternateBounds" />
          </mxGeometry>
        </mxCell>
        <mxCell id="R1CdE3AS88JiQMuyki3D-26" value="" style="shape=tableRow;horizontal=0;startSize=0;swimlaneHead=0;swimlaneBody=0;strokeColor=inherit;top=0;left=0;bottom=0;right=0;collapsible=0;dropTarget=0;fillColor=none;points=[[0,0.5],[1,0.5]];portConstraint=eastwest;" vertex="1" parent="R1CdE3AS88JiQMuyki3D-23">
          <mxGeometry y="40" width="60" height="40" as="geometry" />
        </mxCell>
        <mxCell id="R1CdE3AS88JiQMuyki3D-27" value="显示信息" style="shape=partialRectangle;html=1;whiteSpace=wrap;connectable=0;strokeColor=inherit;overflow=hidden;fillColor=none;top=0;left=0;bottom=0;right=0;pointerEvents=1;" vertex="1" parent="R1CdE3AS88JiQMuyki3D-26">
          <mxGeometry width="60" height="40" as="geometry">
            <mxRectangle width="60" height="40" as="alternateBounds" />
          </mxGeometry>
        </mxCell>
        <mxCell id="R1CdE3AS88JiQMuyki3D-28" value="Yes" style="text;html=1;align=center;verticalAlign=middle;whiteSpace=wrap;rounded=0;" vertex="1" parent="1">
          <mxGeometry x="550" y="429" width="60" height="30" as="geometry" />
        </mxCell>
        <mxCell id="R1CdE3AS88JiQMuyki3D-29" value="No" style="text;html=1;align=center;verticalAlign=middle;whiteSpace=wrap;rounded=0;" vertex="1" parent="1">
          <mxGeometry x="550" y="384" width="60" height="30" as="geometry" />
        </mxCell>
      </root>
    </mxGraphModel>
  </diagram>
  <diagram id="Rhrx9xe5Tm1WzsfDli-h" name="B1计费规则流程图">
    <mxGraphModel dx="451" dy="1740" grid="1" gridSize="10" guides="1" tooltips="1" connect="1" arrows="1" fold="1" page="1" pageScale="1" pageWidth="850" pageHeight="1100" math="0" shadow="0">
      <root>
        <mxCell id="0" />
        <mxCell id="1" parent="0" />
        <mxCell id="UcddZTBZwF6J1MIeO2CI-5" style="edgeStyle=orthogonalEdgeStyle;rounded=0;orthogonalLoop=1;jettySize=auto;html=1;" parent="1" source="UcddZTBZwF6J1MIeO2CI-2" target="UcddZTBZwF6J1MIeO2CI-4" edge="1">
          <mxGeometry relative="1" as="geometry" />
        </mxCell>
        <mxCell id="UcddZTBZwF6J1MIeO2CI-2" value="读取包裹列表（r/s）&lt;div&gt;与用户类型&lt;/div&gt;" style="rounded=0;whiteSpace=wrap;html=1;" parent="1" vertex="1">
          <mxGeometry x="90" y="250" width="120" height="60" as="geometry" />
        </mxCell>
        <mxCell id="UcddZTBZwF6J1MIeO2CI-9" style="edgeStyle=orthogonalEdgeStyle;rounded=0;orthogonalLoop=1;jettySize=auto;html=1;" parent="1" source="UcddZTBZwF6J1MIeO2CI-4" target="UcddZTBZwF6J1MIeO2CI-7" edge="1">
          <mxGeometry relative="1" as="geometry" />
        </mxCell>
        <mxCell id="UcddZTBZwF6J1MIeO2CI-4" value="费用=用户类型系数&lt;div&gt;×体积×包裹类型系数&lt;/div&gt;&lt;div&gt;×(0.8~0.99)内的随机数&lt;/div&gt;" style="rounded=0;whiteSpace=wrap;html=1;" parent="1" vertex="1">
          <mxGeometry x="90" y="370" width="120" height="80" as="geometry" />
        </mxCell>
        <mxCell id="UcddZTBZwF6J1MIeO2CI-11" style="edgeStyle=orthogonalEdgeStyle;rounded=0;orthogonalLoop=1;jettySize=auto;html=1;" parent="1" source="UcddZTBZwF6J1MIeO2CI-6" target="UcddZTBZwF6J1MIeO2CI-10" edge="1">
          <mxGeometry relative="1" as="geometry" />
        </mxCell>
        <mxCell id="UcddZTBZwF6J1MIeO2CI-13" style="edgeStyle=orthogonalEdgeStyle;rounded=0;orthogonalLoop=1;jettySize=auto;html=1;entryX=1;entryY=0.5;entryDx=0;entryDy=0;" parent="1" source="UcddZTBZwF6J1MIeO2CI-6" edge="1">
          <mxGeometry relative="1" as="geometry">
            <mxPoint x="210" y="880" as="targetPoint" />
            <Array as="points">
              <mxPoint x="300" y="645" />
              <mxPoint x="300" y="880" />
            </Array>
          </mxGeometry>
        </mxCell>
        <mxCell id="UcddZTBZwF6J1MIeO2CI-6" value="&amp;lt;0.05?" style="html=1;whiteSpace=wrap;aspect=fixed;shape=isoRectangle;" parent="1" vertex="1">
          <mxGeometry x="75" y="600" width="150" height="90" as="geometry" />
        </mxCell>
        <mxCell id="UcddZTBZwF6J1MIeO2CI-8" style="edgeStyle=orthogonalEdgeStyle;rounded=0;orthogonalLoop=1;jettySize=auto;html=1;" parent="1" source="UcddZTBZwF6J1MIeO2CI-7" target="UcddZTBZwF6J1MIeO2CI-6" edge="1">
          <mxGeometry relative="1" as="geometry" />
        </mxCell>
        <mxCell id="UcddZTBZwF6J1MIeO2CI-7" value="生成随机数0～1" style="rounded=0;whiteSpace=wrap;html=1;" parent="1" vertex="1">
          <mxGeometry x="90" y="500" width="120" height="60" as="geometry" />
        </mxCell>
        <mxCell id="UcddZTBZwF6J1MIeO2CI-14" style="edgeStyle=orthogonalEdgeStyle;rounded=0;orthogonalLoop=1;jettySize=auto;html=1;entryX=0.5;entryY=0;entryDx=0;entryDy=0;" parent="1" source="UcddZTBZwF6J1MIeO2CI-10" edge="1">
          <mxGeometry relative="1" as="geometry">
            <mxPoint x="150" y="850" as="targetPoint" />
          </mxGeometry>
        </mxCell>
        <mxCell id="UcddZTBZwF6J1MIeO2CI-10" value="免单&lt;div&gt;运费记为0&lt;/div&gt;" style="rounded=0;whiteSpace=wrap;html=1;" parent="1" vertex="1">
          <mxGeometry x="90" y="740" width="120" height="60" as="geometry" />
        </mxCell>
        <mxCell id="UcddZTBZwF6J1MIeO2CI-15" value="yes" style="text;html=1;align=center;verticalAlign=middle;whiteSpace=wrap;rounded=0;" parent="1" vertex="1">
          <mxGeometry x="165" y="690" width="60" height="30" as="geometry" />
        </mxCell>
        <mxCell id="UcddZTBZwF6J1MIeO2CI-16" value="运费结算完成&lt;div&gt;写入包裹结构体&lt;/div&gt;&lt;div&gt;的数据中&lt;/div&gt;" style="rounded=1;whiteSpace=wrap;html=1;" parent="1" vertex="1">
          <mxGeometry x="90" y="850" width="120" height="60" as="geometry" />
        </mxCell>
        <mxCell id="UcddZTBZwF6J1MIeO2CI-17" value="No" style="text;html=1;align=center;verticalAlign=middle;whiteSpace=wrap;rounded=0;" parent="1" vertex="1">
          <mxGeometry x="250" y="620" width="60" height="30" as="geometry" />
        </mxCell>
        <mxCell id="UcddZTBZwF6J1MIeO2CI-20" style="edgeStyle=orthogonalEdgeStyle;rounded=0;orthogonalLoop=1;jettySize=auto;html=1;" parent="1" source="UcddZTBZwF6J1MIeO2CI-18" target="UcddZTBZwF6J1MIeO2CI-19" edge="1">
          <mxGeometry relative="1" as="geometry" />
        </mxCell>
        <mxCell id="UcddZTBZwF6J1MIeO2CI-18" value="开始" style="ellipse;whiteSpace=wrap;html=1;" parent="1" vertex="1">
          <mxGeometry x="90" y="-90" width="120" height="80" as="geometry" />
        </mxCell>
        <mxCell id="UcddZTBZwF6J1MIeO2CI-21" style="edgeStyle=orthogonalEdgeStyle;rounded=0;orthogonalLoop=1;jettySize=auto;html=1;" parent="1" source="UcddZTBZwF6J1MIeO2CI-19" target="UcddZTBZwF6J1MIeO2CI-2" edge="1">
          <mxGeometry relative="1" as="geometry" />
        </mxCell>
        <mxCell id="UcddZTBZwF6J1MIeO2CI-23" style="edgeStyle=orthogonalEdgeStyle;rounded=0;orthogonalLoop=1;jettySize=auto;html=1;entryX=0.5;entryY=0;entryDx=0;entryDy=0;" parent="1" source="UcddZTBZwF6J1MIeO2CI-19" target="UcddZTBZwF6J1MIeO2CI-22" edge="1">
          <mxGeometry relative="1" as="geometry">
            <Array as="points">
              <mxPoint x="280" y="75" />
            </Array>
          </mxGeometry>
        </mxCell>
        <mxCell id="UcddZTBZwF6J1MIeO2CI-19" value="ifcollection?&lt;div&gt;是否到付&lt;/div&gt;" style="html=1;whiteSpace=wrap;aspect=fixed;shape=isoRectangle;" parent="1" vertex="1">
          <mxGeometry x="75" y="30" width="150" height="90" as="geometry" />
        </mxCell>
        <mxCell id="UcddZTBZwF6J1MIeO2CI-22" value="设置为0&lt;div&gt;终止计算&lt;/div&gt;" style="rounded=0;whiteSpace=wrap;html=1;" parent="1" vertex="1">
          <mxGeometry x="220" y="150" width="120" height="60" as="geometry" />
        </mxCell>
        <mxCell id="UcddZTBZwF6J1MIeO2CI-24" value="Yes" style="text;html=1;align=center;verticalAlign=middle;whiteSpace=wrap;rounded=0;" parent="1" vertex="1">
          <mxGeometry x="90" y="160" width="60" height="30" as="geometry" />
        </mxCell>
        <mxCell id="UcddZTBZwF6J1MIeO2CI-25" value="No" style="text;html=1;align=center;verticalAlign=middle;whiteSpace=wrap;rounded=0;" parent="1" vertex="1">
          <mxGeometry x="280" y="70" width="60" height="30" as="geometry" />
        </mxCell>
        <mxCell id="XjNeIn66F0YfEztktKJ0-1" value="charge_calculation.c&lt;div&gt;&lt;br&gt;&lt;/div&gt;" style="strokeWidth=2;html=1;shape=mxgraph.flowchart.document2;whiteSpace=wrap;size=0.25;" parent="1" vertex="1">
          <mxGeometry x="240" y="-80" width="130" height="60" as="geometry" />
        </mxCell>
      </root>
    </mxGraphModel>
  </diagram>
  <diagram id="g4Sn9sM8yvgKa-CWUe7_" name="B2 灰色预测">
    <mxGraphModel dx="451" dy="640" grid="1" gridSize="10" guides="1" tooltips="1" connect="1" arrows="1" fold="1" page="1" pageScale="1" pageWidth="850" pageHeight="1100" math="0" shadow="0">
      <root>
        <mxCell id="0" />
        <mxCell id="1" parent="0" />
        <mxCell id="5FXkiBFNGnouYEbXsX1c-3" style="edgeStyle=orthogonalEdgeStyle;rounded=0;orthogonalLoop=1;jettySize=auto;html=1;" edge="1" parent="1" source="5FXkiBFNGnouYEbXsX1c-1" target="5FXkiBFNGnouYEbXsX1c-2">
          <mxGeometry relative="1" as="geometry" />
        </mxCell>
        <mxCell id="5FXkiBFNGnouYEbXsX1c-1" value="开始" style="ellipse;whiteSpace=wrap;html=1;" vertex="1" parent="1">
          <mxGeometry x="110" y="70" width="120" height="80" as="geometry" />
        </mxCell>
        <mxCell id="5FXkiBFNGnouYEbXsX1c-5" style="edgeStyle=orthogonalEdgeStyle;rounded=0;orthogonalLoop=1;jettySize=auto;html=1;" edge="1" parent="1" source="5FXkiBFNGnouYEbXsX1c-2" target="5FXkiBFNGnouYEbXsX1c-4">
          <mxGeometry relative="1" as="geometry" />
        </mxCell>
        <mxCell id="5FXkiBFNGnouYEbXsX1c-2" value="huise.txt&lt;div&gt;读取数据&lt;/div&gt;" style="shape=document;whiteSpace=wrap;html=1;boundedLbl=1;" vertex="1" parent="1">
          <mxGeometry x="110" y="210" width="120" height="80" as="geometry" />
        </mxCell>
        <mxCell id="5FXkiBFNGnouYEbXsX1c-7" style="edgeStyle=orthogonalEdgeStyle;rounded=0;orthogonalLoop=1;jettySize=auto;html=1;" edge="1" parent="1" source="5FXkiBFNGnouYEbXsX1c-4" target="5FXkiBFNGnouYEbXsX1c-6">
          <mxGeometry relative="1" as="geometry" />
        </mxCell>
        <mxCell id="5FXkiBFNGnouYEbXsX1c-4" value="&lt;pre style=&quot;font-family: Menlo, &amp;quot;Roboto Mono&amp;quot;, &amp;quot;Courier New&amp;quot;, Courier, monospace, Inter, sans-serif; overflow: auto; padding: 9.144px 13.716px; text-wrap-mode: wrap; word-break: break-all; font-size: 12.573px; text-align: start; margin-top: 0px !important; margin-bottom: 0px !important;&quot;&gt;初始化灰色预测模型参数        x0[] = count[]     &lt;br/&gt; 生成累加序列x1[]&lt;/pre&gt;" style="rounded=0;whiteSpace=wrap;html=1;" vertex="1" parent="1">
          <mxGeometry x="85" y="350" width="170" height="60" as="geometry" />
        </mxCell>
        <mxCell id="5FXkiBFNGnouYEbXsX1c-6" value="构建矩阵B/bt&lt;div&gt;计算Bt*B求逆矩阵&lt;/div&gt;" style="rounded=0;whiteSpace=wrap;html=1;" vertex="1" parent="1">
          <mxGeometry x="110" y="470" width="120" height="60" as="geometry" />
        </mxCell>
        <mxCell id="5FXkiBFNGnouYEbXsX1c-13" style="edgeStyle=orthogonalEdgeStyle;rounded=0;orthogonalLoop=1;jettySize=auto;html=1;" edge="1" parent="1" source="5FXkiBFNGnouYEbXsX1c-9" target="5FXkiBFNGnouYEbXsX1c-12">
          <mxGeometry relative="1" as="geometry" />
        </mxCell>
        <mxCell id="5FXkiBFNGnouYEbXsX1c-9" value="解参数a/b&lt;div&gt;若det=0则预测失败&lt;/div&gt;" style="rounded=0;whiteSpace=wrap;html=1;" vertex="1" parent="1">
          <mxGeometry x="110" y="590" width="120" height="60" as="geometry" />
        </mxCell>
        <mxCell id="5FXkiBFNGnouYEbXsX1c-10" style="edgeStyle=orthogonalEdgeStyle;rounded=0;orthogonalLoop=1;jettySize=auto;html=1;entryX=0.5;entryY=0;entryDx=0;entryDy=0;" edge="1" parent="1" source="5FXkiBFNGnouYEbXsX1c-6" target="5FXkiBFNGnouYEbXsX1c-9">
          <mxGeometry relative="1" as="geometry" />
        </mxCell>
        <mxCell id="5FXkiBFNGnouYEbXsX1c-15" style="edgeStyle=orthogonalEdgeStyle;rounded=0;orthogonalLoop=1;jettySize=auto;html=1;" edge="1" parent="1" source="5FXkiBFNGnouYEbXsX1c-12" target="5FXkiBFNGnouYEbXsX1c-14">
          <mxGeometry relative="1" as="geometry" />
        </mxCell>
        <mxCell id="5FXkiBFNGnouYEbXsX1c-12" value="使用指数函数预测下一天&lt;div&gt;count[real_time+1]&lt;/div&gt;" style="rounded=0;whiteSpace=wrap;html=1;" vertex="1" parent="1">
          <mxGeometry x="100" y="710" width="140" height="60" as="geometry" />
        </mxCell>
        <mxCell id="5FXkiBFNGnouYEbXsX1c-17" style="edgeStyle=orthogonalEdgeStyle;rounded=0;orthogonalLoop=1;jettySize=auto;html=1;" edge="1" parent="1" source="5FXkiBFNGnouYEbXsX1c-14" target="5FXkiBFNGnouYEbXsX1c-16">
          <mxGeometry relative="1" as="geometry" />
        </mxCell>
        <mxCell id="5FXkiBFNGnouYEbXsX1c-14" value="保存到文件" style="shape=document;whiteSpace=wrap;html=1;boundedLbl=1;" vertex="1" parent="1">
          <mxGeometry x="110" y="830" width="120" height="70" as="geometry" />
        </mxCell>
        <mxCell id="5FXkiBFNGnouYEbXsX1c-16" value="结束" style="rounded=0;whiteSpace=wrap;html=1;" vertex="1" parent="1">
          <mxGeometry x="110" y="970" width="120" height="60" as="geometry" />
        </mxCell>
      </root>
    </mxGraphModel>
  </diagram>
</mxfile>
